<?xml version="1.0" standalone="no"?>
<!DOCTYPE svg PUBLIC "-//W3C//DTD SVG 20010904//EN"
 "http://www.w3.org/TR/2001/REC-SVG-20010904/DTD/svg10.dtd">
<svg version="1.0" xmlns="http://www.w3.org/2000/svg"
 width="700.000000pt" height="700.000000pt" viewBox="0 0 700.000000 700.000000"
 preserveAspectRatio="xMidYMid meet">
<metadata>
Created by potrace 1.14, written by Peter Selinger 2001-2017
</metadata>
<g transform="translate(0.000000,700.000000) scale(0.100000,-0.100000)"
fill="#000000" stroke="none">
<path d="M5177 6415 c-113 -39 -275 -174 -408 -340 -116 -144 -276 -419 -294
-505 -4 -19 -31 -93 -60 -165 -29 -71 -67 -177 -85 -235 -34 -110 -57 -152
-92 -171 -28 -15 -110 -13 -213 5 -272 47 -468 54 -650 20 -54 -9 -231 -73
-303 -109 -39 -19 -79 -35 -88 -35 -18 0 -61 42 -154 150 -435 505 -825 766
-1150 772 -341 6 -464 -196 -464 -762 0 -254 19 -419 76 -660 16 -69 38 -167
48 -217 10 -51 28 -106 39 -122 46 -64 45 -73 -15 -137 -105 -114 -199 -268
-267 -439 -39 -97 -85 -249 -93 -305 -3 -19 -7 -46 -9 -60 -7 -40 -16 -184
-20 -321 -4 -149 -6 -159 -54 -224 -41 -55 -62 -93 -81 -145 -79 -222 -83
-234 -88 -335 -5 -114 17 -218 66 -310 39 -72 164 -193 242 -234 36 -19 89
-51 118 -73 l52 -39 -1 -63 c-3 -125 51 -222 163 -292 99 -62 215 -83 443 -79
94 2 181 6 195 8 14 3 48 9 75 13 28 4 52 8 55 9 132 31 216 65 268 110 40 34
91 106 102 145 7 25 5 32 -12 45 -27 18 -34 13 -42 -26 -8 -43 -75 -103 -160
-144 -70 -33 -208 -78 -276 -89 -19 -3 -46 -9 -60 -12 -14 -3 -92 -8 -175 -11
-198 -6 -395 27 -395 67 0 4 11 6 25 5 14 -2 25 1 25 6 0 5 -3 9 -7 9 -5 0
-19 10 -33 21 -25 20 -25 20 15 0 22 -12 54 -24 72 -27 18 -3 33 -9 33 -13 0
-3 17 -6 38 -7 20 0 82 -4 137 -8 55 -4 105 -7 110 -7 27 -1 203 11 225 16 14
2 50 10 80 16 81 16 192 71 238 117 24 24 48 63 61 98 45 121 40 115 91 108
85 -13 128 -31 167 -72 41 -43 98 -61 200 -63 36 -1 50 -5 46 -13 -5 -8 -3 -8
8 0 15 13 57 13 77 1 6 -5 12 -4 12 0 0 10 134 8 150 -2 5 -3 10 -3 10 2 0 4
106 6 235 3 129 -3 235 -1 235 3 0 4 10 3 21 -4 12 -6 19 -7 15 -1 -3 5 4 10
17 10 12 0 97 2 190 6 142 5 167 3 167 -9 0 -34 43 -126 73 -155 61 -61 221
-160 344 -212 64 -28 181 -53 288 -62 57 -5 59 -5 30 9 -27 12 -11 13 135 9
91 -2 194 -7 230 -11 308 -37 649 83 787 276 62 87 66 91 109 81 44 -10 55 -6
25 9 -20 11 -20 12 7 66 15 30 32 55 39 55 6 0 33 -9 59 -20 26 -11 48 -19 50
-17 4 4 -75 40 -109 51 -17 5 -18 15 -13 103 4 53 8 99 11 101 2 3 26 7 52 10
82 8 96 23 16 17 l-73 -5 -1 37 c0 21 -2 49 -5 63 -14 92 -5 110 91 171 33 22
52 39 43 39 -17 0 -22 -2 -116 -40 -30 -12 -55 -20 -56 -18 -19 39 -73 97
-145 155 l-24 19 45 100 c51 111 57 135 65 232 19 218 -23 300 -316 612 -92
99 -91 95 -85 325 5 211 11 237 61 304 56 73 69 176 32 246 -48 94 -52 220
-10 374 31 111 26 174 -16 227 l-31 39 35 95 c96 265 117 372 117 580 -1 139
-22 253 -72 375 -33 83 -36 100 -40 210 l-3 120 -59 120 c-90 185 -221 368
-302 419 -34 22 -113 27 -161 11z m288 -316 c19 -37 35 -71 35 -75 0 -5 -16
19 -34 54 -19 35 -53 89 -76 120 l-42 57 41 -45 c22 -25 56 -75 76 -111z m53
-114 c-3 -3 -9 2 -12 12 -6 14 -5 15 5 6 7 -7 10 -15 7 -18z m-698 -39 c0 -2
-8 -10 -17 -17 -16 -13 -17 -12 -4 4 13 16 21 21 21 13z m724 -22 c3 -8 2 -12
-4 -9 -6 3 -10 10 -10 16 0 14 7 11 14 -7z m-792 -71 c-80 -120 -195 -341
-272 -523 -21 -52 -40 -90 -40 -83 0 25 120 297 175 395 63 114 161 268 170
268 3 0 -12 -26 -33 -57z m237 -129 c-12 -13 -27 -24 -32 -24 -5 0 2 9 17 21
14 11 23 25 20 31 -5 7 -2 8 5 3 9 -5 7 -13 -10 -31z m-53 1 c-11 -8 -25 -15
-30 -15 -6 1 0 7 14 15 32 19 40 18 16 0z m4 -38 c0 -2 -10 -12 -22 -23 l-23
-19 19 23 c18 21 26 27 26 19z m-179 -41 c-13 -32 -16 -33 -16 -2 0 13 3 22 8
19 4 -2 7 1 7 8 0 7 2 10 5 7 3 -3 1 -17 -4 -32z m182 -1 c-3 -9 -8 -14 -10
-11 -3 3 -2 9 2 15 9 16 15 13 8 -4z m-2926 -55 c147 -81 302 -192 399 -286
33 -33 44 -45 25 -28 -141 122 -304 238 -432 308 -46 25 -80 46 -75 46 5 0 42
-18 83 -40z m-605 -14 c-15 -24 -29 -42 -31 -40 -4 4 47 84 54 84 2 0 -8 -20
-23 -44z m3558 10 c0 -2 -8 -10 -17 -17 -16 -13 -17 -12 -4 4 13 16 21 21 21
13z m591 -75 c9 -28 16 -51 14 -51 -3 0 0 -11 5 -25 5 -14 6 -25 2 -25 -10 0
-35 40 -44 68 -5 19 -4 21 7 12 11 -9 12 -7 8 9 -3 12 -9 18 -14 16 -4 -3 -6
4 -4 16 3 13 -1 30 -7 38 -10 13 -10 14 1 4 8 -7 22 -35 32 -62z m-411 53 c0
-8 -19 -13 -24 -6 -3 5 1 9 9 9 8 0 15 -2 15 -3z m-63 -38 c-7 -13 -15 -22
-19 -20 -3 2 -13 -3 -22 -11 -8 -9 -32 -18 -53 -20 -37 -4 -37 -4 -14 9 14 8
30 12 36 10 6 -3 26 9 45 25 19 17 36 30 37 31 0 0 -4 -11 -10 -24z m550 -18
c-3 -8 -6 -5 -6 6 -1 11 2 17 5 13 3 -3 4 -12 1 -19z m-587 -51 c0 -2 -10 -12
-22 -23 l-23 -19 19 23 c18 21 26 27 26 19z m-295 -17 c-3 -5 -12 -10 -18 -10
-7 0 -6 4 3 10 19 12 23 12 15 0z m805 -42 c0 -26 -9 -19 -15 11 -2 12 0 19 6
16 5 -4 9 -16 9 -27z m97 -5 c-3 -10 -5 -4 -5 12 0 17 2 24 5 18 2 -7 2 -21 0
-30z m-767 11 c0 -8 -19 -13 -24 -6 -3 5 1 9 9 9 8 0 15 -2 15 -3z m-3553 -51
c-3 -10 -5 -4 -5 12 0 17 2 24 5 18 2 -7 2 -21 0 -30z m3526 12 c-3 -9 -8 -14
-10 -11 -3 3 -2 9 2 15 9 16 15 13 8 -4z m735 -31 c2 -21 0 -35 -4 -31 -9 9
-15 79 -6 73 4 -3 9 -22 10 -42z m69 4 c-3 -8 -6 -5 -6 6 -1 11 2 17 5 13 3
-3 4 -12 1 -19z m-726 -11 c-10 -9 -11 -8 -5 6 3 10 9 15 12 12 3 -3 0 -11 -7
-18z m-3614 -34 c-3 -10 -5 -4 -5 12 0 17 2 24 5 18 2 -7 2 -21 0 -30z m3811
6 c-3 -8 -7 -3 -11 10 -4 17 -3 21 5 13 5 -5 8 -16 6 -23z m-195 -4 c-3 -9 -8
-14 -10 -11 -3 3 -2 9 2 15 9 16 15 13 8 -4z m734 -17 c-3 -7 -5 -2 -5 12 0
14 2 19 5 13 2 -7 2 -19 0 -25z m-70 0 c-2 -7 0 -26 4 -42 5 -18 5 -26 0 -20
-14 13 -21 74 -9 74 5 0 8 -6 5 -12z m-3507 -4 c0 -8 -19 -13 -24 -6 -3 5 1 9
9 9 8 0 15 -2 15 -3z m219 -28 c-3 -3 -11 5 -18 17 -13 21 -12 21 5 5 10 -10
16 -20 13 -22z m-993 9 c-1 -8 -5 -17 -8 -21 -5 -4 -4 16 1 34 3 9 9 -1 7 -13z
m807 -3 c-2 -6 6 -14 17 -17 11 -4 20 -11 20 -17 0 -6 -9 -4 -22 4 -13 8 -29
18 -36 22 -7 4 -10 12 -6 17 7 13 30 5 27 -9z m210 -27 c-7 -21 -13 -19 -13 6
0 11 4 18 10 14 5 -3 7 -12 3 -20z m2697 19 c0 -8 -19 -13 -24 -6 -3 5 1 9 9
9 8 0 15 -2 15 -3z m468 -40 c0 -25 -3 -33 -9 -23 -7 12 -9 11 -9 -1 0 -9 6
-22 13 -29 10 -11 9 -12 -2 -6 -18 10 -33 -15 -19 -32 8 -10 6 -13 -6 -13 -9
0 -16 2 -16 5 0 10 42 135 45 135 2 0 3 -16 3 -36z m-3127 9 c13 -16 12 -17
-3 -4 -10 7 -18 15 -18 17 0 8 8 3 21 -13z m150 -10 l24 -28 -30 25 c-16 14
-32 26 -34 28 -2 1 0 2 6 2 5 0 20 -12 34 -27z m1900 0 c-12 -20 -14 -14 -5
12 4 9 9 14 11 11 3 -2 0 -13 -6 -23z m-3118 -124 c-4 -4 -6 27 -3 69 l5 77 3
-69 c2 -38 -1 -73 -5 -77z m3810 123 c-2 -10 -16 -32 -30 -48 l-25 -29 20 30
c10 17 22 38 25 48 8 23 16 22 10 -1z m-2888 -12 c10 -11 16 -20 13 -20 -3 0
-13 9 -23 20 -10 11 -16 20 -13 20 3 0 13 -9 23 -20z m2685 16 c0 -2 -8 -10
-17 -17 -16 -13 -17 -12 -4 4 13 16 21 21 21 13z m-2694 -38 l29 -33 -32 29
c-18 17 -33 31 -33 33 0 8 8 1 36 -29z m2364 12 c-6 -11 -13 -20 -16 -20 -2 0
0 9 6 20 6 11 13 20 16 20 2 0 0 -9 -6 -20z m-2229 -7 c13 -16 12 -17 -3 -4
-17 13 -22 21 -14 21 2 0 10 -8 17 -17z m2050 -20 c-12 -20 -14 -14 -5 12 4 9
9 14 11 11 3 -2 0 -13 -6 -23z m469 24 c0 -1 -21 -20 -47 -41 l-48 -38 44 41
c40 38 51 46 51 38z m-2599 -24 c13 -16 12 -17 -3 -4 -17 13 -22 21 -14 21 2
0 10 -8 17 -17z m2901 -7 c-5 -18 -7 -19 -10 -3 -2 9 -8 14 -14 11 -6 -4 -8
-3 -5 3 12 19 34 11 29 -11z m-2797 -6 c3 -5 4 -10 1 -10 -2 0 -11 -2 -19 -5
-8 -4 -14 0 -14 10 0 17 22 21 32 5z m-155 -18 c0 -5 -7 -9 -15 -9 -8 0 -12 4
-9 9 3 4 9 8 15 8 5 0 9 -4 9 -8z m395 -2 c3 -5 1 -10 -4 -10 -6 0 -11 5 -11
10 0 6 2 10 4 10 3 0 8 -4 11 -10z m-104 -17 c13 -16 12 -17 -3 -4 -10 7 -18
15 -18 17 0 8 8 3 21 -13z m1870 -6 c-10 -9 -11 -8 -5 6 3 10 9 15 12 12 3 -3
0 -11 -7 -18z m-2411 3 c0 -5 -8 -10 -17 -10 -15 0 -16 2 -3 10 19 12 20 12
20 0z m3076 1 c-4 -5 -1 -11 6 -13 8 -3 6 -6 -4 -10 -11 -5 -15 -2 -13 10 5
23 4 22 11 22 3 0 3 -4 0 -9z m649 -1 c3 -5 1 -10 -4 -10 -6 0 -11 5 -11 10 0
6 2 10 4 10 3 0 8 -4 11 -10z m-3325 -22 c0 -6 -6 -5 -15 2 -8 7 -15 14 -15
16 0 2 7 1 15 -2 8 -4 15 -11 15 -16z m26 -4 c1 -9 0 -13 -4 -10 -3 4 -7 14
-8 22 -1 9 0 13 4 10 3 -4 7 -14 8 -22z m2104 -24 c-11 -22 -23 -40 -25 -40
-3 0 4 18 15 40 11 22 23 40 25 40 3 0 -4 -18 -15 -40z m941 13 c-12 -20 -14
-14 -5 12 4 9 9 14 11 11 3 -2 0 -13 -6 -23z m-3531 7 c0 -5 -2 -10 -4 -10 -3
0 -8 5 -11 10 -3 6 -1 10 4 10 6 0 11 -4 11 -10z m548 -23 c9 -11 8 -14 -3
-14 -7 0 -13 5 -12 10 1 5 -4 12 -12 15 -9 3 -11 0 -6 -9 5 -8 4 -10 0 -6 -5
4 -10 14 -11 22 -3 17 24 6 44 -18z m-1151 -9 c-3 -8 -6 -5 -6 6 -1 11 2 17 5
13 3 -3 4 -12 1 -19z m550 2 c1 -11 -2 -20 -7 -20 -6 0 -7 17 -1 38 3 8 7 -1
8 -18z m3570 -22 c-3 -8 -6 -5 -6 6 -1 11 2 17 5 13 3 -3 4 -12 1 -19z m-2934
-3 c4 -8 3 -16 -1 -19 -4 -3 -9 4 -9 15 -2 23 3 25 10 4z m2227 11 c0 -2 -8
-10 -17 -17 -16 -13 -17 -12 -4 4 13 16 21 21 21 13z m980 -16 c0 -11 -4 -20
-9 -20 -5 0 -7 9 -4 20 3 11 7 20 9 20 2 0 4 -9 4 -20z m-4393 -42 c-2 -13 -4
-5 -4 17 -1 22 1 32 4 23 2 -10 2 -28 0 -40z m1324 25 c13 -16 12 -17 -3 -4
-17 13 -22 21 -14 21 2 0 10 -8 17 -17z m1710 -10 c-12 -20 -14 -14 -5 12 4 9
9 14 11 11 3 -2 0 -13 -6 -23z m-1812 -1 c7 -13 6 -19 -2 -19 -7 0 -13 9 -13
19 0 10 1 18 3 18 1 0 7 -8 12 -18z m2451 15 c0 -2 -10 -12 -21 -23 -22 -19
-22 -19 -8 4 12 19 29 30 29 19z m-487 -27 c-3 -11 -10 -23 -16 -27 -5 -3 -8
-2 -5 3 3 5 8 17 11 27 9 24 16 22 10 -3z m258 3 c-5 -10 -17 -27 -26 -38 -16
-19 -17 -19 -3 5 26 46 29 50 34 50 3 0 0 -8 -5 -17z m944 -12 c-2 -10 -6 -36
-9 -57 -4 -21 -9 -40 -12 -43 -5 -5 2 55 11 99 5 20 4 20 9 20 3 0 3 -8 1 -19z
m-830 -11 c-10 -11 -22 -20 -28 -20 -5 0 1 9 14 20 31 25 37 25 14 0z m-3025
-4 c0 -2 -7 -7 -16 -10 -8 -3 -12 -2 -9 4 6 10 25 14 25 6z m2487 -18 c-3 -8
-6 -5 -6 6 -1 11 2 17 5 13 3 -3 4 -12 1 -19z m317 -3 c-9 -14 -18 -25 -21
-25 -5 0 5 18 20 38 17 22 18 13 1 -13z m-3337 -7 c-3 -8 -6 -5 -6 6 -1 11 2
17 5 13 3 -3 4 -12 1 -19z m4170 0 c-3 -8 -6 -5 -6 6 -1 11 2 17 5 13 3 -3 4
-12 1 -19z m-3677 8 c0 -3 -4 -8 -10 -11 -5 -3 -10 -1 -10 4 0 6 5 11 10 11 6
0 10 -2 10 -4z m1784 -4 c3 -5 -1 -9 -9 -9 -8 0 -12 4 -9 9 3 4 7 8 9 8 2 0 6
-4 9 -8z m1666 -7 c-7 -8 -16 -13 -20 -10 -5 3 -11 1 -15 -5 -3 -5 -12 -10
-18 -10 -7 0 -3 7 7 15 10 8 23 12 27 9 5 -3 9 0 9 5 0 6 5 11 11 11 8 0 8 -5
-1 -15z m-1712 -2 c-10 -2 -28 -2 -40 0 -13 2 -5 4 17 4 22 1 32 -1 23 -4z
m1255 -26 c-15 -19 -30 -32 -32 -30 -5 3 49 63 57 63 2 0 -9 -15 -25 -33z
m-1335 16 c-10 -2 -26 -2 -35 0 -10 3 -2 5 17 5 19 0 27 -2 18 -5z m859 -15
c-3 -8 -6 -5 -6 6 -1 11 2 17 5 13 3 -3 4 -12 1 -19z m379 -15 c-8 -15 -15
-25 -16 -21 0 12 23 58 27 54 3 -2 -2 -17 -11 -33z m-3389 5 c-3 -8 -6 -5 -6
6 -1 11 2 17 5 13 3 -3 4 -12 1 -19z m1463 -23 c0 -12 -20 6 -31 28 l-11 22
21 -22 c11 -12 21 -25 21 -28z m623 38 c-7 -2 -19 -2 -25 0 -7 3 -2 5 12 5 14
0 19 -2 13 -5z m-46 -9 c-3 -3 -12 -4 -19 -1 -8 3 -5 6 6 6 11 1 17 -2 13 -5z
m1553 2 c0 -2 -8 -10 -17 -17 -16 -13 -17 -12 -4 4 13 16 21 21 21 13z m190
-1 c0 -2 -10 -9 -22 -15 -22 -11 -22 -10 -4 4 21 17 26 19 26 11z m380 -10 c0
-8 -4 -15 -10 -15 -5 0 -7 7 -4 15 4 8 8 15 10 15 2 0 4 -7 4 -15z m-1422 -2
c-10 -2 -26 -2 -35 0 -10 3 -2 5 17 5 19 0 27 -2 18 -5z m59 -9 c-3 -3 -12 -4
-19 -1 -8 3 -5 6 6 6 11 1 17 -2 13 -5z m47 -3 c4 -5 -3 -7 -14 -4 -23 6 -26
13 -6 13 8 0 17 -4 20 -9z m-1967 -7 c-3 -3 -12 -4 -19 -1 -8 3 -5 6 6 6 11 1
17 -2 13 -5z m2873 -11 c0 -3 -7 -3 -15 1 -8 3 -15 0 -15 -6 0 -6 -3 -9 -6 -5
-11 10 6 26 21 20 8 -3 15 -7 15 -10z m331 -6 c-10 -9 -11 -8 -5 6 3 10 9 15
12 12 3 -3 0 -11 -7 -18z m-3519 -12 c3 -14 2 -25 -2 -25 -4 0 -10 11 -12 25
-3 14 -2 25 2 25 4 0 10 -11 12 -25z m298 -7 c0 -12 -6 -9 -26 13 -19 22 -19
22 4 8 12 -8 22 -17 22 -21z m624 16 c3 -8 2 -12 -4 -9 -6 3 -10 10 -10 16 0
14 7 11 14 -7z m1921 -32 l-39 -37 35 41 c19 22 36 39 39 37 2 -2 -13 -20 -35
-41z m150 38 c-3 -5 -11 -10 -16 -10 -6 0 -7 5 -4 10 3 6 11 10 16 10 6 0 7
-4 4 -10z m595 -5 c0 -8 -2 -15 -4 -15 -2 0 -6 7 -10 15 -3 8 -1 15 4 15 6 0
10 -7 10 -15z m207 -17 c-3 -7 -5 -2 -5 12 0 14 2 19 5 13 2 -7 2 -19 0 -25z
m-2502 12 c-3 -5 -12 -10 -18 -10 -7 0 -6 4 3 10 19 12 23 12 15 0z m1138 -10
c-3 -12 -8 -19 -11 -16 -5 6 5 36 12 36 2 0 2 -9 -1 -20z m527 7 c0 -2 -10
-12 -22 -23 l-23 -19 19 23 c18 21 26 27 26 19z m-1705 -17 c-3 -5 -14 -10
-23 -9 -14 0 -13 2 3 9 27 11 27 11 20 0z m2239 -5 c3 -8 1 -15 -4 -15 -6 0
-10 7 -10 15 0 8 2 15 4 15 2 0 6 -7 10 -15z m-3153 -12 c13 -17 13 -17 -6 -3
-11 8 -22 16 -24 17 -2 2 0 3 6 3 6 0 17 -8 24 -17z m619 7 c0 -5 -2 -10 -4
-10 -3 0 -8 5 -11 10 -3 6 -1 10 4 10 6 0 11 -4 11 -10z m1387 -12 c-3 -8 -6
-5 -6 6 -1 11 2 17 5 13 3 -3 4 -12 1 -19z m763 18 c0 -2 -8 -10 -17 -17 -16
-13 -17 -12 -4 4 13 16 21 21 21 13z m1 -43 c-11 -21 -20 -35 -21 -31 0 12 33
78 38 74 2 -2 -6 -21 -17 -43z m432 27 c-3 -11 -7 -20 -9 -20 -2 0 -4 9 -4 20
0 11 4 20 9 20 5 0 7 -9 4 -20z m74 -2 c-3 -8 -6 -5 -6 6 -1 11 2 17 5 13 3
-3 4 -12 1 -19z m-3117 -14 c0 -2 -9 0 -20 6 -11 6 -20 13 -20 16 0 2 9 0 20
-6 11 -6 20 -13 20 -16z m700 16 c-8 -5 -19 -10 -25 -10 -5 0 -3 5 5 10 8 5
20 10 25 10 6 0 3 -5 -5 -10z m-210 -25 c14 -19 14 -19 -2 -6 -10 7 -18 18
-18 24 0 6 1 8 3 6 1 -2 9 -13 17 -24z m1424 -24 c-4 -23 -9 -40 -11 -37 -3 3
-2 23 2 46 4 23 9 39 11 37 3 -2 2 -23 -2 -46z m-2024 21 c12 -3 170 -111 170
-117 0 -1 -8 -2 -17 -3 -29 -1 -93 30 -93 46 0 8 -6 12 -14 9 -10 -4 -12 0 -8
15 3 14 1 19 -6 14 -6 -3 -16 3 -22 14 -6 11 -16 19 -22 17 -6 -1 -13 5 -15
13 -3 9 -1 11 4 5 4 -5 15 -11 23 -13z m2680 15 c0 -2 -10 -12 -22 -23 l-23
-19 19 23 c18 21 26 27 26 19z m-2507 -37 c24 -16 50 -37 58 -46 12 -15 -75
42 -105 68 -22 19 6 6 47 -22z m-333 0 c0 -5 -2 -10 -4 -10 -3 0 -8 5 -11 10
-3 6 -1 10 4 10 6 0 11 -4 11 -10z m2659 7 c-2 -1 -13 -9 -24 -17 -19 -14 -19
-14 -6 3 7 9 18 17 24 17 6 0 8 -1 6 -3z m469 -4 c-10 -2 -18 -9 -18 -15 0 -6
-3 -9 -6 -5 -10 10 6 27 24 26 15 -1 15 -2 0 -6z m-1021 -25 c-3 -8 -6 -5 -6
6 -1 11 2 17 5 13 3 -3 4 -12 1 -19z m683 19 c0 -2 -10 -12 -22 -23 l-23 -19
19 23 c18 21 26 27 26 19z m543 -12 c-3 -9 -8 -14 -10 -11 -3 3 -2 9 2 15 9
16 15 13 8 -4z m-3990 -51 c-4 -22 -2 -34 6 -34 6 0 11 5 11 12 0 19 13 0 26
-37 6 -19 8 -35 4 -35 -4 0 -11 10 -15 23 -6 22 -7 22 -19 -6 -12 -27 -12 -26
-22 33 -7 42 -7 60 0 61 6 0 5 3 -1 6 -7 2 -13 12 -13 20 0 12 3 13 14 4 10
-8 13 -23 9 -47z m3510 31 c-3 -9 -8 -14 -10 -11 -3 3 -2 9 2 15 9 16 15 13 8
-4z m167 2 c0 -2 -12 -14 -27 -28 l-26 -24 19 27 c16 23 34 36 34 25z m-2310
-78 c0 -4 -18 8 -40 28 -22 21 -40 39 -40 41 0 2 18 -11 40 -28 22 -17 40 -36
40 -41z m1387 34 c-3 -10 -5 -4 -5 12 0 17 2 24 5 18 2 -7 2 -21 0 -30z m603
-8 c-24 -25 -46 -45 -49 -45 -5 0 47 58 69 77 32 27 22 11 -20 -32z m-2034
-76 c29 -43 47 -76 42 -73 -12 8 -101 143 -110 169 -9 24 -12 28 68 -96z
m1499 57 c-4 -25 -10 -44 -14 -41 -4 2 -3 24 3 49 13 57 20 52 11 -8z m1185
50 c0 -2 -7 -7 -16 -10 -8 -3 -12 -2 -9 4 6 10 25 14 25 6z m177 -18 c-3 -8
-6 -5 -6 6 -1 11 2 17 5 13 3 -3 4 -12 1 -19z m-3096 -5 c13 -16 12 -17 -3 -4
-10 7 -18 15 -18 17 0 8 8 3 21 -13z m2849 9 c0 -5 -7 -17 -15 -28 -14 -18
-14 -17 -4 9 12 27 19 34 19 19z m-3598 -46 c-2 -5 -9 -1 -14 8 -5 9 -6 21 -2
28 9 14 25 -22 16 -36z m2512 20 c-3 -8 -1 -23 5 -34 8 -15 7 -21 -4 -26 -8
-3 -17 0 -21 6 -4 7 -3 8 4 4 7 -4 12 -1 12 9 0 10 -5 13 -12 9 -6 -4 -9 -3
-6 2 3 5 8 17 11 27 4 9 9 17 11 17 3 0 3 -6 0 -14z m-1313 -13 c13 -16 12
-17 -3 -4 -17 13 -22 21 -14 21 2 0 10 -8 17 -17z m-391 -14 c0 -5 5 -7 12 -3
7 4 8 3 4 -5 -6 -9 -11 -9 -22 0 -17 14 -18 19 -4 19 6 0 10 -5 10 -11z m1631
1 c5 0 9 -7 9 -15 0 -20 -17 -19 -30 3 -8 13 -10 13 -9 2 3 -33 -1 -70 -9 -70
-4 0 -6 21 -4 46 3 35 7 44 19 40 8 -3 19 -6 24 -6z m990 -13 c-10 -9 -11 -8
-5 6 3 10 9 15 12 12 3 -3 0 -11 -7 -18z m396 -19 c-3 -7 -5 -2 -5 12 0 14 2
19 5 13 2 -7 2 -19 0 -25z m-3802 12 c3 -5 -1 -10 -9 -10 -9 0 -16 5 -16 10 0
6 4 10 9 10 6 0 13 -4 16 -10z m3295 -9 c-5 -11 -45 -55 -88 -99 -42 -43 -51
-51 -19 -17 62 66 77 97 24 49 -18 -16 -7 -3 25 29 62 61 75 69 58 38z m-2224
-23 l29 -32 -32 25 c-18 13 -32 27 -32 32 -1 12 4 8 35 -25z m-1513 2 c3 -11
1 -18 -4 -14 -5 3 -9 12 -9 20 0 20 7 17 13 -6z m1017 10 c0 -5 -2 -10 -4 -10
-3 0 -8 5 -11 10 -3 6 -1 10 4 10 6 0 11 -4 11 -10z m651 -7 c13 -16 12 -17
-3 -4 -10 7 -18 15 -18 17 0 8 8 3 21 -13z m1239 -14 c0 -5 -7 -9 -15 -9 -9 0
-12 6 -9 15 6 15 24 11 24 -6z m-2744 -51 c7 -21 12 -38 9 -38 -8 0 -35 71
-34 89 0 13 1 13 6 1 2 -8 11 -32 19 -52z m294 58 c0 -11 -19 -15 -25 -6 -3 5
1 10 9 10 9 0 16 -2 16 -4z m730 -47 c0 -4 -5 -11 -12 -15 -7 -4 -8 -3 -4 5 4
6 0 24 -9 39 l-16 27 20 -24 c12 -13 21 -27 21 -32z m-75 15 c28 -18 32 -31
10 -31 -8 0 -12 4 -9 8 2 4 -6 15 -18 23 -30 21 -14 21 17 0z m2229 -9 c-9
-14 -19 -23 -22 -20 -5 4 26 45 35 45 2 0 -4 -11 -13 -25z m-3337 -7 c-3 -8
-6 -5 -6 6 -1 11 2 17 5 13 3 -3 4 -12 1 -19z m2894 -1 c-10 -9 -11 -8 -5 6 3
10 9 15 12 12 3 -3 0 -11 -7 -18z m679 19 c0 -2 -8 -10 -17 -17 -16 -13 -17
-12 -4 4 13 16 21 21 21 13z m647 -30 c-1 -19 -6 -31 -10 -27 -7 7 0 61 8 61
2 0 3 -15 2 -34z m-2869 4 c7 -11 11 -20 9 -20 -2 0 -12 9 -22 20 -10 11 -14
20 -9 20 5 0 15 -9 22 -20z m203 3 c13 -16 12 -17 -3 -4 -17 13 -22 21 -14 21
2 0 10 -8 17 -17z m1256 -20 c-3 -10 -5 -4 -5 12 0 17 2 24 5 18 2 -7 2 -21 0
-30z m-1720 11 c-3 -3 -12 -4 -19 -1 -8 3 -5 6 6 6 11 1 17 -2 13 -5z m648
-24 l20 -25 -22 19 c-13 11 -23 24 -23 29 0 6 1 8 3 6 1 -2 11 -15 22 -29z
m1795 26 c0 -2 -17 -16 -37 -31 l-38 -26 35 30 c34 31 40 35 40 27z m-3523
-38 c-3 -7 -5 -2 -5 12 0 14 2 19 5 13 2 -7 2 -19 0 -25z m1384 15 c13 -16 12
-17 -3 -4 -10 7 -18 15 -18 17 0 8 8 3 21 -13z m-771 -37 c0 -5 -7 -3 -15 4
-8 7 -15 20 -15 28 0 13 3 12 15 -4 8 -10 15 -23 15 -28z m2833 29 c-3 -9 -8
-14 -10 -11 -3 3 -2 9 2 15 9 16 15 13 8 -4z m-1982 -12 c13 -16 12 -17 -3 -4
-10 7 -18 15 -18 17 0 8 8 3 21 -13z m2101 -16 c-12 -13 -22 -31 -22 -40 0 -9
-4 -19 -10 -22 -5 -3 -10 -1 -10 5 0 6 -5 8 -12 4 -7 -5 5 11 27 34 21 23 41
42 44 42 2 0 -5 -10 -17 -23z m-3052 -19 c0 -12 -6 -9 -26 13 -19 22 -19 22 4
8 12 -8 22 -17 22 -21z m93 -56 c-7 -2 -13 -7 -13 -12 0 -12 -30 -1 -52 18
-20 17 -23 32 -7 32 5 0 8 -4 5 -8 -7 -12 42 -38 51 -28 4 4 0 12 -10 17 -9 6
-24 24 -33 41 -15 28 -12 27 27 -13 26 -25 39 -45 32 -47z m820 70 c15 -16 15
-19 2 -19 -8 0 -13 3 -10 5 3 3 0 11 -6 19 -17 20 -5 16 14 -5z m-281 -31 c13
-18 18 -21 38 -21 6 0 10 -7 10 -16 0 -8 4 -13 8 -10 4 2 8 -4 8 -15 0 -10 -1
-19 -1 -19 -1 0 -27 27 -58 60 -31 33 -48 56 -37 50 10 -5 25 -19 32 -29z
m668 -43 c53 -71 49 -72 -9 -3 -27 33 -63 85 -58 85 3 0 32 -37 67 -82z m1397
60 c-3 -8 -6 -5 -6 6 -1 11 2 17 5 13 3 -3 4 -12 1 -19z m863 2 c-6 -11 -13
-20 -16 -20 -2 0 0 9 6 20 6 11 13 20 16 20 2 0 0 -9 -6 -20z m-3886 -16 c3
-8 2 -12 -4 -9 -6 3 -10 10 -10 16 0 14 7 11 14 -7z m146 -81 c0 -5 -9 6 -20
22 -17 25 -20 27 -21 10 0 -13 -5 -8 -13 15 -8 19 -11 39 -8 44 4 8 62 -76 62
-91z m1305 87 c3 -6 -1 -7 -9 -4 -18 7 -21 14 -7 14 6 0 13 -4 16 -10z m1362
-22 c-3 -7 -5 -2 -5 12 0 14 2 19 5 13 2 -7 2 -19 0 -25z m1220 0 c-3 -7 -5
-2 -5 12 0 14 2 19 5 13 2 -7 2 -19 0 -25z m-1430 0 c-3 -8 -6 -5 -6 6 -1 11
2 17 5 13 3 -3 4 -12 1 -19z m473 16 c0 -8 -19 -13 -24 -6 -3 5 1 9 9 9 8 0
15 -2 15 -3z m-1765 -59 l37 -50 -34 35 c-19 19 -38 44 -42 55 -9 24 -7 22 39
-40z m175 23 c0 -6 -6 -5 -15 2 -8 7 -15 14 -15 16 0 2 7 1 15 -2 8 -4 15 -11
15 -16z m1644 -5 c-10 -40 -14 -41 -14 -5 0 18 5 32 10 32 6 0 8 -11 4 -27z
m695 4 c0 -8 -2 -8 -6 1 -4 10 -8 10 -21 0 -15 -12 -16 -11 -3 4 14 19 32 15
30 -5z m-3812 -9 c-3 -8 -6 -5 -6 6 -1 11 2 17 5 13 3 -3 4 -12 1 -19z m2748
-25 c-6 -47 -11 -60 -19 -52 -5 5 15 99 22 99 2 0 1 -21 -3 -47z m52 -10 c-3
-10 -5 -2 -5 17 0 19 2 27 5 18 2 -10 2 -26 0 -35z m513 43 c0 -2 -7 -9 -15
-16 -13 -11 -14 -10 -9 4 5 14 24 23 24 12z m722 -25 c2 -17 1 -28 -4 -25 -8
5 -12 54 -4 54 2 0 6 -13 8 -29z m-4215 -3 c-3 -8 -6 -5 -6 6 -1 11 2 17 5 13
3 -3 4 -12 1 -19z m632 -2 c9 -11 7 -15 -8 -19 -12 -3 -26 2 -33 11 -10 12
-10 14 0 8 6 -4 12 -2 12 3 0 15 15 14 29 -3z m631 -29 c0 -5 4 -6 9 -3 5 3
14 -1 21 -9 10 -12 10 -15 -3 -15 -9 0 -19 5 -22 10 -4 6 -11 7 -17 4 -6 -4
-8 -2 -4 4 10 16 -14 26 -27 12 -9 -10 -9 -11 2 -5 10 5 12 4 7 -4 -11 -17
-26 -3 -24 23 2 22 3 22 30 7 15 -9 28 -20 28 -24z m429 -1 c-2 -2 -13 8 -23
22 l-19 27 24 -22 c12 -12 21 -24 18 -27z m1347 9 c-1 -13 -4 -27 -7 -30 -5
-4 -4 41 0 53 4 10 8 -2 7 -23z m328 16 c4 -5 -3 -7 -14 -4 -23 6 -26 13 -6
13 8 0 17 -4 20 -9z m596 6 c0 -2 -10 -12 -22 -23 l-23 -19 19 23 c18 21 26
27 26 19z m-3873 -29 c-3 -8 -6 -5 -6 6 -1 11 2 17 5 13 3 -3 4 -12 1 -19z
m127 -4 c3 -8 2 -12 -4 -9 -6 3 -10 10 -10 16 0 14 7 11 14 -7z m2543 -16 c-8
-54 -49 -128 -72 -128 -4 0 4 13 18 29 14 17 30 53 37 80 13 57 24 68 17 19z
m-2393 -33 l38 -50 -41 45 c-23 25 -41 49 -41 54 0 5 1 7 3 5 1 -2 20 -26 41
-54z m-345 0 c0 -5 -4 -3 -9 5 -5 8 -9 22 -9 30 0 16 17 -16 18 -35z m1782
-75 c3 -3 18 -25 34 -49 21 -34 29 -41 37 -30 8 12 9 11 5 -1 -2 -8 2 -27 10
-42 23 -46 9 -32 -53 55 -32 45 -61 84 -64 87 -14 13 -70 89 -70 95 0 4 21
-19 47 -52 26 -32 50 -60 54 -63z m1176 98 c-3 -8 -6 -5 -6 6 -1 11 2 17 5 13
3 -3 4 -12 1 -19z m85 -5 c-3 -16 -7 -22 -10 -15 -4 13 4 42 11 42 2 0 2 -12
-1 -27z m-2501 -48 c7 -14 4 -12 -11 5 -11 14 -25 34 -31 45 -7 14 -4 12 11
-5 11 -14 25 -34 31 -45z m2812 45 c3 -11 1 -18 -4 -14 -5 3 -9 12 -9 20 0 20
7 17 13 -6z m-2748 -12 c6 -4 2 -8 -7 -8 -10 0 -18 7 -18 17 0 9 3 12 8 7 4
-5 12 -12 17 -16z m639 3 c17 -19 17 -19 0 -17 -9 2 -18 10 -20 19 -3 21 -1
21 20 -2z m137 2 c13 -16 12 -17 -3 -4 -17 13 -22 21 -14 21 2 0 10 -8 17 -17z
m2683 -23 c-6 -5 -24 21 -24 34 0 6 6 1 14 -10 8 -10 12 -21 10 -24z m-2516 5
c-3 -3 -9 2 -12 12 -6 14 -5 15 5 6 7 -7 10 -15 7 -18z m130 13 c-2 -7 2 -12
9 -11 8 2 10 -4 6 -14 -4 -10 -2 -14 4 -10 6 4 17 -1 24 -11 12 -15 12 -16 -2
-5 -12 10 -18 10 -27 1 -9 -9 -12 -7 -12 9 0 12 -5 25 -10 28 -6 4 -8 11 -5
16 9 13 15 11 13 -3z m182 -20 c0 -5 -7 -3 -15 6 -8 8 -15 18 -15 22 0 3 7 1
15 -6 8 -7 15 -17 15 -22z m1158 -9 c-3 -20 -5 -19 -9 9 -3 20 -2 29 4 23 5
-5 7 -19 5 -32z m106 -48 c-4 -4 -54 53 -68 78 -5 9 9 -4 31 -29 23 -25 39
-47 37 -49z m817 72 c13 -16 12 -17 -3 -4 -10 7 -18 15 -18 17 0 8 8 3 21 -13z
m-3706 -19 c9 -15 12 -23 6 -20 -11 7 -35 46 -28 46 3 0 12 -12 22 -26z m63 1
c-3 -3 -9 2 -12 12 -6 14 -5 15 5 6 7 -7 10 -15 7 -18z m1226 -14 c28 -29 34
-41 24 -46 -7 -5 -10 -4 -5 0 4 5 -9 26 -30 47 -20 21 -35 38 -32 38 3 0 22
-17 43 -39z m1433 17 c-3 -8 -6 -5 -6 6 -1 11 2 17 5 13 3 -3 4 -12 1 -19z
m928 12 c-3 -5 -12 -10 -18 -10 -7 0 -6 4 3 10 19 12 23 12 15 0z m-988 -62
c-2 -13 -4 -3 -4 22 0 25 2 35 4 23 2 -13 2 -33 0 -45z m537 30 c-4 -18 -7
-38 -7 -45 0 -7 -4 -10 -8 -8 -7 5 10 85 18 85 3 0 1 -15 -3 -32z m749 17 c-3
-9 -8 -14 -10 -11 -3 3 -2 9 2 15 9 16 15 13 8 -4z m-2747 -32 c15 -20 23 -33
16 -29 -13 8 -56 66 -49 66 3 0 17 -17 33 -37z m1774 27 c0 -5 -4 -10 -10 -10
-5 0 -10 5 -10 10 0 6 5 10 10 10 6 0 10 -4 10 -10z m-3203 -32 c-3 -8 -6 -5
-6 6 -1 11 2 17 5 13 3 -3 4 -12 1 -19z m1263 12 c0 -5 -2 -10 -4 -10 -3 0 -8
5 -11 10 -3 6 -1 10 4 10 6 0 11 -4 11 -10z m69 -41 c1 -8 -58 2 -64 11 -3 5
5 6 17 3 21 -4 22 -3 6 10 -10 8 -18 17 -18 21 0 9 59 -36 59 -45z m1622 26
c5 4 9 -4 9 -17 l0 -23 -20 25 c-11 14 -20 30 -19 35 0 6 4 2 10 -8 6 -9 14
-15 20 -12z m-2637 -1 c3 -8 2 -12 -4 -9 -6 3 -10 10 -10 16 0 14 7 11 14 -7z
m1587 -17 l11 -22 -21 22 c-22 23 -28 39 -11 28 5 -3 15 -16 21 -28z m2253
-19 c-2 -29 -10 -84 -16 -122 -10 -61 -13 -66 -21 -43 -10 31 -33 35 -54 10
-12 -16 -13 -12 -9 31 3 31 14 59 31 80 14 17 35 46 48 63 12 18 23 33 24 33
1 0 0 -24 -3 -52z m-1122 10 c-6 -6 -12 -6 -17 3 -5 8 -4 10 3 5 7 -4 12 0 13
11 0 12 2 13 6 5 3 -8 1 -18 -5 -24z m-1268 -37 c-4 -5 -43 41 -44 52 0 4 11
-5 24 -20 13 -15 23 -30 20 -32z m1832 22 c-8 -15 -15 -25 -16 -21 0 12 23 58
27 54 3 -2 -2 -17 -11 -33z m-2101 17 c3 -5 1 -10 -4 -10 -6 0 -11 5 -11 10 0
6 2 10 4 10 3 0 8 -4 11 -10z m1742 -27 c-3 -10 -5 -4 -5 12 0 17 2 24 5 18 2
-7 2 -21 0 -30z m-3230 5 c-3 -8 -6 -5 -6 6 -1 11 2 17 5 13 3 -3 4 -12 1 -19z
m1478 -6 c-3 -3 -11 0 -18 7 -9 10 -8 11 6 5 10 -3 15 -9 12 -12z m-1025 -27
c19 -19 32 -35 29 -35 -3 0 -20 16 -39 35 -19 19 -32 35 -29 35 3 0 20 -16 39
-35z m1250 31 c0 -3 -4 -8 -10 -11 -5 -3 -10 -1 -10 4 0 6 5 11 10 11 6 0 10
-2 10 -4z m225 -6 c3 -5 1 -10 -4 -10 -6 0 -11 5 -11 10 0 6 2 10 4 10 3 0 8
-4 11 -10z m702 4 c-3 -3 -12 -4 -19 -1 -8 3 -5 6 6 6 11 1 17 -2 13 -5z
m-1112 -32 c-8 -8 -25 10 -19 20 4 6 9 5 15 -3 4 -7 6 -15 4 -17z m778 21 c-7
-2 -19 -2 -25 0 -7 3 -2 5 12 5 14 0 19 -2 13 -5z m291 -5 c-3 -4 -9 -8 -15
-8 -5 0 -9 4 -9 8 0 5 7 9 15 9 8 0 12 -4 9 -9z m709 -3 c-3 -9 -8 -14 -10
-11 -3 3 -2 9 2 15 9 16 15 13 8 -4z m437 -5 c-6 -11 -13 -20 -16 -20 -2 0 0
9 6 20 6 11 13 20 16 20 2 0 0 -9 -6 -20z m-3710 -25 c0 -5 -5 -3 -10 5 -5 8
-10 20 -10 25 0 6 5 3 10 -5 5 -8 10 -19 10 -25z m1938 10 c-3 -3 -9 2 -12 12
-6 14 -5 15 5 6 7 -7 10 -15 7 -18z m197 16 c-3 -5 5 -12 17 -14 20 -4 19 -4
-4 -6 -19 -1 -28 4 -28 14 0 8 5 15 11 15 5 0 8 -4 4 -9z m302 3 c-3 -3 -12
-4 -19 -1 -8 3 -5 6 6 6 11 1 17 -2 13 -5z m60 0 c-3 -3 -12 -4 -19 -1 -8 3
-5 6 6 6 11 1 17 -2 13 -5z m-1955 -16 c-5 -5 -19 -4 -33 1 -23 10 -22 10 8 8
18 0 29 -5 25 -9z m2053 -8 c10 -11 16 -20 13 -20 -3 0 -13 9 -23 20 -10 11
-16 20 -13 20 3 0 13 -9 23 -20z m-1487 -11 c40 -15 23 -17 -25 -3 -27 8 -52
16 -58 19 -16 8 58 -7 83 -16z m580 -15 c-3 -14 -5 -12 -10 9 -3 19 -2 25 4
19 6 -6 8 -18 6 -28z m-1388 1 c14 -19 14 -19 -2 -6 -10 7 -18 18 -18 24 0 6
1 8 3 6 1 -2 9 -13 17 -24z m1460 15 c0 -5 -5 -10 -11 -10 -5 0 -7 5 -4 10 3
6 8 10 11 10 2 0 4 -4 4 -10z m280 6 c0 -11 -19 -15 -25 -6 -3 5 1 10 9 10 9
0 16 -2 16 -4z m183 -3 c-7 -2 -19 -2 -25 0 -7 3 -2 5 12 5 14 0 19 -2 13 -5z
m-823 -25 c0 -6 -6 -5 -15 2 -8 7 -15 14 -15 16 0 2 7 1 15 -2 8 -4 15 -11 15
-16z m1467 0 c-3 -8 -6 -5 -6 6 -1 11 2 17 5 13 3 -3 4 -12 1 -19z m-1890 -5
c10 -10 14 -15 8 -11 -6 4 -22 12 -36 17 -15 6 -18 10 -8 10 9 1 25 -7 36 -16z
m1410 11 c-3 -3 -12 -4 -19 -1 -8 3 -5 6 6 6 11 1 17 -2 13 -5z m-2002 -19 c6
0 9 -9 7 -19 -2 -13 1 -17 11 -13 7 3 14 -1 14 -8 0 -20 -21 -8 -47 27 -12 17
-16 27 -9 22 8 -5 19 -9 24 -9z m2122 9 c-3 -3 -12 -4 -19 -1 -8 3 -5 6 6 6
11 1 17 -2 13 -5z m143 -3 c0 -4 -11 -6 -25 -3 -14 2 -25 6 -25 8 0 2 11 4 25
4 14 0 25 -4 25 -9z m121 -8 c4 -4 -14 -6 -41 -5 -28 2 -50 7 -50 11 0 9 81 4
91 -6z m-2171 -18 c14 -19 14 -19 -2 -6 -10 7 -18 18 -18 24 0 6 1 8 3 6 1 -2
9 -13 17 -24z m1364 9 c3 -8 2 -12 -4 -9 -6 3 -10 10 -10 16 0 14 7 11 14 -7z
m-266 -30 c-3 -14 -5 -12 -10 9 -3 19 -2 25 4 19 6 -6 8 -18 6 -28z m1667 16
c3 -5 1 -10 -4 -10 -6 0 -11 5 -11 10 0 6 2 10 4 10 3 0 8 -4 11 -10z m422
-16 c2 -13 1 -15 -4 -4 -3 8 -11 19 -17 23 -7 6 -6 7 4 4 8 -2 16 -12 17 -23z
m-1920 -71 c22 -29 26 -39 14 -31 -11 7 -24 21 -30 32 -5 12 -19 37 -31 56
-12 19 -13 24 -3 10 10 -13 33 -44 50 -67z m-1827 42 c0 -5 -5 -3 -10 5 -5 8
-10 20 -10 25 0 6 5 3 10 -5 5 -8 10 -19 10 -25z m1825 15 c10 -11 14 -20 9
-20 -5 0 -15 9 -22 20 -7 11 -11 20 -9 20 2 0 12 -9 22 -20z m1590 -2 c13 -5
9 -6 -15 -2 -19 4 -42 10 -50 15 -18 11 34 1 65 -13z m-3005 -3 c7 -9 8 -15 2
-15 -5 0 -12 7 -16 15 -3 8 -4 15 -2 15 2 0 9 -7 16 -15z m270 -82 c0 -2 -25
15 -55 38 -30 23 -55 46 -55 51 0 5 25 -12 55 -38 30 -26 55 -49 55 -51z
m2324 81 c3 -8 2 -12 -4 -9 -6 3 -10 10 -10 16 0 14 7 11 14 -7z m-2340 -118
c40 -31 92 -65 115 -77 23 -11 41 -23 41 -24 0 -11 -63 17 -86 38 -15 14 -38
31 -53 39 -14 7 -28 16 -31 19 -3 4 -32 28 -65 53 -33 26 -64 55 -69 64 -5 9
9 0 32 -20 23 -21 75 -62 116 -92z m3083 92 c-3 -8 -6 -5 -6 6 -1 11 2 17 5
13 3 -3 4 -12 1 -19z m-2080 -20 c-3 -7 -5 -2 -5 12 0 14 2 19 5 13 2 -7 2
-19 0 -25z m1833 22 c0 -5 -2 -10 -4 -10 -3 0 -8 5 -11 10 -3 6 -1 10 4 10 6
0 11 -4 11 -10z m-3403 -22 c-3 -8 -6 -5 -6 6 -1 11 2 17 5 13 3 -3 4 -12 1
-19z m264 5 c13 -16 12 -17 -3 -4 -17 13 -22 21 -14 21 2 0 10 -8 17 -17z m95
-19 c1 -9 -1 -13 -4 -9 -4 4 -7 10 -7 13 0 4 -4 14 -9 22 -7 12 -6 13 4 3 8
-7 15 -20 16 -29z m1512 5 c-3 -8 -7 -3 -11 10 -4 17 -3 21 5 13 5 -5 8 -16 6
-23z m956 15 c3 -8 2 -12 -4 -9 -6 3 -10 10 -10 16 0 14 7 11 14 -7z m593 -16
c-3 -8 -6 -5 -6 6 -1 11 2 17 5 13 3 -3 4 -12 1 -19z m-127 -3 c-7 -8 -17 -15
-23 -15 -6 0 -2 7 9 15 25 19 30 19 14 0z m-2070 -10 c0 -12 -19 -12 -23 0 -4
9 -1 12 9 8 7 -3 14 -7 14 -8z m-1286 -11 c3 -8 2 -12 -4 -9 -6 3 -10 10 -10
16 0 14 7 11 14 -7z m1067 -1 c13 -16 12 -17 -3 -4 -17 13 -22 21 -14 21 2 0
10 -8 17 -17z m2988 -59 c12 -15 21 -32 21 -38 0 -6 -9 3 -19 20 -11 18 -24
35 -30 38 -6 4 -11 19 -10 34 l1 27 8 -27 c4 -15 18 -39 29 -54z m-3699 23
c15 -17 18 -26 9 -22 -8 3 -23 20 -33 38 -11 18 -15 28 -10 22 5 -5 20 -23 34
-38z m512 36 c-6 -2 -9 -9 -6 -15 4 -5 -4 -4 -17 2 -36 19 -35 20 2 19 19 0
28 -3 21 -6z m-774 -28 c-3 -3 -9 2 -12 12 -6 14 -5 15 5 6 7 -7 10 -15 7 -18z
m819 19 c-3 -3 -12 -4 -19 -1 -8 3 -5 6 6 6 11 1 17 -2 13 -5z m38 -12 c-3 -3
-11 0 -18 7 -9 10 -8 11 6 5 10 -3 15 -9 12 -12z m2063 -7 c-3 -3 -9 2 -12 12
-6 14 -5 15 5 6 7 -7 10 -15 7 -18z m-1708 -22 c0 -32 -5 -28 -14 10 -4 19 -3
26 4 22 5 -3 10 -18 10 -32z m1461 20 c13 -16 12 -17 -3 -4 -17 13 -22 21 -14
21 2 0 10 -8 17 -17z m-1754 1 c-3 -3 -12 -4 -19 -1 -8 3 -5 6 6 6 11 1 17 -2
13 -5z m73 -4 c0 -5 -5 -10 -11 -10 -5 0 -7 5 -4 10 3 6 8 10 11 10 2 0 4 -4
4 -10z m1810 -5 c-7 -8 -9 -15 -4 -15 5 0 2 -6 -6 -13 -8 -7 -21 -25 -28 -41
-7 -16 -15 -26 -18 -23 -7 6 22 65 44 90 18 21 29 23 12 2z m660 6 c0 -11 -69
-36 -76 -28 -3 3 8 8 25 12 17 4 33 11 36 16 8 12 15 12 15 0z m-3134 -22 c19
-22 19 -22 -3 -8 -13 8 -23 17 -23 21 0 12 6 9 26 -13z m1164 1 c0 -5 -5 -10
-11 -10 -5 0 -7 5 -4 10 3 6 8 10 11 10 2 0 4 -4 4 -10z m1000 6 c0 -2 -7 -6
-15 -10 -8 -3 -15 -1 -15 4 0 6 7 10 15 10 8 0 15 -2 15 -4z m1190 -3 c-8 -3
-22 -11 -30 -17 -13 -10 -13 -9 -1 7 7 9 21 17 30 16 13 0 14 -1 1 -6z m-1159
-20 c13 -16 12 -17 -3 -4 -17 13 -22 21 -14 21 2 0 10 -8 17 -17z m1249 3 c0
-2 -7 -7 -16 -10 -8 -3 -12 -2 -9 4 6 10 25 14 25 6z m-3460 -28 c0 -6 -6 -5
-15 2 -8 7 -15 14 -15 16 0 2 7 1 15 -2 8 -4 15 -11 15 -16z m1230 12 c0 -5
-2 -10 -4 -10 -3 0 -8 5 -11 10 -3 6 -1 10 4 10 6 0 11 -4 11 -10z m1792 -20
c6 0 9 -2 6 -5 -8 -9 -58 17 -52 27 3 4 12 1 20 -7 9 -8 20 -15 26 -15z m285
13 c-14 -14 -19 -15 -29 -4 -11 10 -10 11 3 6 10 -4 20 -2 24 4 3 6 9 11 13
11 3 0 -1 -8 -11 -17z m253 7 c0 -5 -5 -10 -11 -10 -5 0 -7 5 -4 10 3 6 8 10
11 10 2 0 4 -4 4 -10z m-3495 -18 c-3 -3 -11 0 -18 7 -9 10 -8 11 6 5 10 -3
15 -9 12 -12z m195 8 c18 -12 2 -12 -25 0 -13 6 -15 9 -5 9 8 0 22 -4 30 -9z
m-703 -6 c-3 -3 -12 -4 -19 -1 -8 3 -5 6 6 6 11 1 17 -2 13 -5z m171 -25 c-3
-8 -7 -3 -11 10 -4 17 -3 21 5 13 5 -5 8 -16 6 -23z m-222 6 c-11 -8 -25 -15
-30 -15 -6 1 0 7 14 15 32 19 40 18 16 0z m2041 -32 c-3 -10 -5 -2 -5 17 0 19
2 27 5 18 2 -10 2 -26 0 -35z m1966 32 c-3 -9 -8 -14 -10 -11 -3 3 -2 9 2 15
9 16 15 13 8 -4z m-3482 -12 c13 -16 12 -17 -3 -4 -10 7 -18 15 -18 17 0 8 8
3 21 -13z m1017 -18 c-3 -3 -9 2 -12 12 -6 14 -5 15 5 6 7 -7 10 -15 7 -18z
m2069 19 c-3 -3 -12 -4 -19 -1 -8 3 -5 6 6 6 11 1 17 -2 13 -5z m-3260 -22 c9
-15 8 -19 -3 -19 -8 0 -12 3 -9 5 3 3 0 11 -6 19 -6 7 -7 13 -3 13 5 0 14 -8
21 -18z m277 1 c4 -11 1 -11 -14 -3 -24 13 -25 17 -5 17 8 0 16 -6 19 -14z
m3023 11 c-3 -3 -12 -4 -19 -1 -8 3 -5 6 6 6 11 1 17 -2 13 -5z m-3733 -49
c-20 -25 -39 -45 -42 -45 -5 0 8 17 52 68 35 40 28 23 -10 -23z m1226 25 c6
-11 8 -20 6 -20 -3 0 -10 9 -16 20 -6 11 -8 20 -6 20 3 0 10 -9 16 -20z m473
5 c-3 -9 -8 -14 -10 -11 -3 3 -2 9 2 15 9 16 15 13 8 -4z m1299 -7 c-5 -20
-15 -17 -18 6 -1 7 4 13 11 13 7 0 10 -8 7 -19z m803 12 c25 -11 -1 -11 -35 0
-20 6 -21 8 -5 8 11 0 29 -3 40 -8z m-3475 -20 c6 -11 8 -20 6 -20 -3 0 -10 9
-16 20 -6 11 -8 20 -6 20 3 0 10 -9 16 -20z m700 10 c8 -5 11 -10 5 -10 -5 0
-17 5 -25 10 -8 5 -10 10 -5 10 6 0 17 -5 25 -10z m125 -17 c11 -7 17 -13 14
-13 -9 0 -69 31 -69 35 0 6 33 -7 55 -22z m1725 7 c6 -11 8 -20 6 -20 -3 0
-10 9 -16 20 -6 11 -8 20 -6 20 3 0 10 -9 16 -20z m-2713 -12 c-3 -8 -6 -5 -6
6 -1 11 2 17 5 13 3 -3 4 -12 1 -19z m3696 15 c-7 -2 -19 -2 -25 0 -7 3 -2 5
12 5 14 0 19 -2 13 -5z m-3030 -27 c15 -22 15 -24 -3 -19 -11 3 -18 13 -17 24
2 24 2 24 20 -5z m1354 -86 c18 -8 33 -21 33 -28 0 -17 -27 -2 -63 36 -19 19
-30 44 -33 69 -4 37 -4 37 13 -12 14 -38 26 -54 50 -65z m1388 100 c3 -5 1
-10 -4 -10 -6 0 -11 5 -11 10 0 6 2 10 4 10 3 0 8 -4 11 -10z m59 1 c4 -5 -3
-7 -14 -4 -23 6 -26 13 -6 13 8 0 17 -4 20 -9z m296 0 c0 -4 -11 -6 -25 -3
-14 2 -25 6 -25 8 0 2 11 4 25 4 14 0 25 -4 25 -9z m-1271 -31 c11 -24 11 -24
-3 -6 -9 11 -16 24 -16 30 0 12 5 7 19 -24z m-2389 -15 c0 -5 -5 -3 -10 5 -5
8 -10 20 -10 25 0 6 5 3 10 -5 5 -8 10 -19 10 -25z m990 0 c0 -5 -5 -3 -10 5
-5 8 -10 20 -10 25 0 6 5 3 10 -5 5 -8 10 -19 10 -25z m2630 25 c-8 -5 -26 -9
-40 -9 -23 1 -23 2 5 9 43 11 52 11 35 0z m-1174 -12 c4 -7 3 -8 -4 -4 -8 5
-12 0 -12 -13 0 -24 -16 -36 -26 -20 -4 8 -3 9 4 5 8 -5 12 2 12 18 0 27 14
34 26 14z m1104 0 c0 -6 -3 -8 -7 -5 -3 4 -12 2 -18 -3 -9 -7 -14 -7 -18 3 -3
8 4 14 19 15 13 1 24 -3 24 -10z m-2141 -29 c5 8 11 9 15 3 9 -14 -20 -22 -33
-9 -6 6 -11 18 -10 27 0 8 5 4 10 -10 8 -18 12 -21 18 -11z m2461 28 c0 -2
-10 -12 -22 -23 l-23 -19 19 23 c18 21 26 27 26 19z m-3386 -33 c3 -8 2 -12
-4 -9 -6 3 -10 10 -10 16 0 14 7 11 14 -7z m511 -34 c18 -15 19 -6 5 21 -6 10
-8 19 -6 19 10 0 35 -57 29 -64 -4 -3 -17 4 -31 16 -25 24 -31 26 -41 10 -4
-6 -13 2 -22 17 l-16 27 34 -17 c19 -10 40 -23 48 -29z m-1315 20 c-6 -11 -13
-20 -16 -20 -2 0 0 9 6 20 6 11 13 20 16 20 2 0 0 -9 -6 -20z m3953 -33 c32
-21 56 -41 53 -44 -2 -3 -15 4 -27 16 -13 12 -27 21 -31 21 -5 0 -14 5 -21 10
-7 6 -23 19 -37 31 -34 28 -8 14 63 -34z m-3407 31 c3 -4 -1 -5 -10 -4 -8 1
-18 5 -22 8 -3 4 1 5 10 4 8 -1 18 -5 22 -8z m-202 -14 c3 -8 2 -12 -4 -9 -6
3 -10 10 -10 16 0 14 7 11 14 -7z m204 -29 c-3 -3 -9 2 -12 12 -6 14 -5 15 5
6 7 -7 10 -15 7 -18z m336 -4 c-2 -3 -12 3 -22 13 -16 17 -16 18 5 5 12 -7 20
-15 17 -18z m3376 25 c0 -2 -8 -10 -17 -17 -16 -13 -17 -12 -4 4 13 16 21 21
21 13z m-4292 -31 c-6 -14 -13 -23 -15 -21 -5 5 15 46 22 46 3 0 -1 -11 -7
-25z m470 0 c-3 -3 -9 2 -12 12 -6 14 -5 15 5 6 7 -7 10 -15 7 -18z m3426 9
c3 -8 2 -12 -4 -9 -6 3 -10 10 -10 16 0 14 7 11 14 -7z m-3500 -10 c3 -8 2
-12 -4 -9 -6 3 -10 10 -10 16 0 14 7 11 14 -7z m3591 -6 c7 -7 1 -8 -15 -3
-40 12 -59 26 -25 19 17 -4 35 -11 40 -16z m-3034 -5 c13 -16 12 -17 -3 -4
-10 7 -18 15 -18 17 0 8 8 3 21 -13z m1434 3 c18 -8 37 -11 41 -8 4 4 4 2 0
-5 -4 -8 -14 -9 -29 -4 -13 5 -34 7 -48 4 -19 -3 -26 0 -26 11 0 20 18 20 62
2z m1445 -21 c13 -14 21 -25 18 -25 -2 0 -15 11 -28 25 -13 14 -21 25 -18 25
2 0 15 -11 28 -25z m430 21 c0 -2 -8 -10 -17 -17 -16 -13 -17 -12 -4 4 13 16
21 21 21 13z m-1440 -31 c13 -14 21 -25 18 -25 -2 0 -15 11 -28 25 -13 14 -21
25 -18 25 2 0 15 -11 28 -25z m-2179 -2 c13 -16 12 -17 -3 -4 -10 7 -18 15
-18 17 0 8 8 3 21 -13z m1827 8 c11 -7 11 -9 -1 -14 -16 -6 -27 0 -27 15 0 10
11 10 28 -1z m-2495 -16 c-3 -9 -8 -14 -10 -11 -3 3 -2 9 2 15 9 16 15 13 8
-4z m445 -10 c-3 -3 -9 2 -12 12 -6 14 -5 15 5 6 7 -7 10 -15 7 -18z m212 -7
c15 -21 17 -28 6 -19 -16 13 -41 51 -33 51 2 0 14 -15 27 -32z m664 19 c3 3 6
1 6 -5 0 -6 12 -25 27 -44 23 -28 19 -26 -22 11 -28 25 -52 47 -55 49 -3 3 5
0 16 -6 12 -6 24 -8 28 -5z m1240 -8 c14 -7 27 -18 30 -26 5 -11 2 -11 -15 -1
-12 7 -31 19 -43 25 -26 16 -5 17 28 2z m-2020 -25 c3 -8 2 -12 -4 -9 -6 3
-10 10 -10 16 0 14 7 11 14 -7z m157 -1 c13 -16 12 -17 -3 -4 -10 7 -18 15
-18 17 0 8 8 3 21 -13z m-720 -16 c-10 -9 -11 -8 -5 6 3 10 9 15 12 12 3 -3 0
-11 -7 -18z m489 3 c6 -11 8 -20 6 -20 -3 0 -10 9 -16 20 -6 11 -8 20 -6 20 3
0 10 -9 16 -20z m1029 -41 c34 -56 42 -81 10 -34 -25 37 -51 85 -46 85 2 0 18
-23 36 -51z m153 -19 c4 0 8 -6 8 -12 -1 -15 -70 61 -70 76 0 6 12 -6 27 -27
14 -20 30 -37 35 -37z m998 50 c0 -12 -33 -5 -38 8 -2 6 5 8 17 5 12 -3 21 -9
21 -13z m1381 3 c13 -16 12 -17 -3 -4 -17 13 -22 21 -14 21 2 0 10 -8 17 -17z
m-2916 -3 c3 -6 -1 -7 -9 -4 -18 7 -21 14 -7 14 6 0 13 -4 16 -10z m2840 0 c3
-6 -1 -7 -9 -4 -18 7 -21 14 -7 14 6 0 13 -4 16 -10z m-3387 -25 c-3 -3 -9 2
-12 12 -6 14 -5 15 5 6 7 -7 10 -15 7 -18z m133 8 c13 -16 12 -17 -3 -4 -10 7
-18 15 -18 17 0 8 8 3 21 -13z m-631 -13 c-6 -11 -13 -20 -16 -20 -2 0 0 9 6
20 6 11 13 20 16 20 2 0 0 -9 -6 -20z m2643 -9 c21 -16 34 -32 28 -35 -5 -4
-15 3 -21 14 -6 11 -22 23 -35 26 -14 3 -25 10 -25 15 0 15 13 10 53 -20z
m-1632 2 c13 -16 12 -17 -3 -4 -10 7 -18 15 -18 17 0 8 8 3 21 -13z m-994 -15
c-3 -8 -6 -5 -6 6 -1 11 2 17 5 13 3 -3 4 -12 1 -19z m688 2 c10 -11 16 -20
13 -20 -3 0 -13 9 -23 20 -10 11 -16 20 -13 20 3 0 13 -9 23 -20z m668 -39
c-2 -3 -18 10 -36 29 l-32 34 36 -30 c20 -16 34 -31 32 -33z m2102 41 c-3 -3
-11 0 -18 7 -9 10 -8 11 6 5 10 -3 15 -9 12 -12z m-2814 -9 c13 -16 12 -17 -3
-4 -10 7 -18 15 -18 17 0 8 8 3 21 -13z m-130 -10 c13 -16 12 -17 -3 -4 -10 7
-18 15 -18 17 0 8 8 3 21 -13z m590 0 c13 -16 12 -17 -3 -4 -10 7 -18 15 -18
17 0 8 8 3 21 -13z m3096 -75 c-2 -18 -4 -4 -4 32 0 36 2 50 4 33 2 -18 2 -48
0 -65z m-2407 61 c-7 -11 -14 -18 -17 -15 -3 3 0 12 7 21 18 21 23 19 10 -6z
m-1334 -26 c15 -20 23 -33 16 -29 -13 8 -56 66 -49 66 3 0 17 -17 33 -37z
m3064 26 c0 -4 -12 -9 -27 -11 -17 -2 -32 -12 -40 -28 -9 -17 -13 -20 -13 -8
0 9 11 25 24 36 25 19 56 25 56 11z m-1905 -39 c-3 -6 -14 -10 -23 -10 -15 1
-15 2 2 15 11 8 14 15 7 15 -7 0 -9 5 -5 11 5 8 10 6 16 -5 5 -9 6 -21 3 -26z
m-590 10 c10 -11 16 -20 13 -20 -3 0 -13 9 -23 20 -10 11 -16 20 -13 20 3 0
13 -9 23 -20z m2547 1 c-4 -20 27 -51 46 -44 9 4 13 2 9 -4 -7 -12 -47 -25
-45 -14 3 11 -31 69 -44 75 -7 3 -2 4 12 3 15 -1 24 -8 22 -16z m-2418 -6 c3
-8 1 -15 -4 -15 -6 0 -10 7 -10 15 0 8 2 15 4 15 2 0 6 -7 10 -15z m1572 -7
l19 -23 -25 20 c-14 11 -27 21 -29 22 -2 2 0 3 6 3 5 0 18 -10 29 -22z m1322
-47 c14 -39 15 -61 5 -61 -5 0 -9 15 -10 32 -2 18 -7 34 -12 36 -6 2 -8 9 -5
17 3 7 1 16 -5 20 -6 3 -11 11 -11 18 0 17 25 -23 38 -62z m-3657 42 c13 -16
12 -17 -3 -4 -10 7 -18 15 -18 17 0 8 8 3 21 -13z m1396 11 c-3 -3 -12 -4 -19
-1 -8 3 -5 6 6 6 11 1 17 -2 13 -5z m-1950 -26 c-3 -8 -6 -5 -6 6 -1 11 2 17
5 13 3 -3 4 -12 1 -19z m1233 -23 c13 -14 19 -25 13 -25 -6 0 -18 11 -27 25
-9 14 -15 25 -13 25 2 0 14 -11 27 -25z m1695 15 c3 -5 1 -10 -4 -10 -6 0 -11
5 -11 10 0 6 2 10 4 10 3 0 8 -4 11 -10z m948 3 c-7 -2 -19 -2 -25 0 -7 3 -2
5 12 5 14 0 19 -2 13 -5z m125 -23 c17 -7 32 -16 32 -21 0 -5 6 -9 13 -9 6 -1
22 -9 35 -19 41 -35 22 -31 -38 8 -52 34 -119 58 -143 52 -5 -1 -6 3 -3 8 6 9
47 2 104 -19z m-3333 -74 c15 -10 40 -22 54 -26 16 -5 19 -9 9 -9 -10 -1 -18
-5 -18 -11 0 -5 -5 -10 -11 -10 -5 0 -8 4 -5 9 4 5 -9 19 -28 30 -19 12 -51
43 -71 69 l-37 47 39 -40 c22 -22 52 -49 68 -59z m5 69 c13 -14 21 -25 18 -25
-2 0 -15 11 -28 25 -13 14 -21 25 -18 25 2 0 15 -11 28 -25z m264 -23 c16 -12
25 -22 20 -22 -12 0 -74 56 -74 67 0 4 6 1 13 -7 7 -9 25 -25 41 -38z m793 19
c-3 -13 1 -21 12 -24 10 -3 8 -5 -8 -6 -17 -1 -22 3 -17 15 3 9 6 20 6 25 0 5
3 9 6 9 4 0 4 -9 1 -19z m103 9 c0 -5 -5 -10 -11 -10 -5 0 -7 5 -4 10 3 6 8
10 11 10 2 0 4 -4 4 -10z m1125 -10 c3 -5 1 -10 -4 -10 -6 0 -11 5 -11 10 0 6
2 10 4 10 3 0 8 -4 11 -10z m587 -45 c41 -11 68 -28 68 -42 0 -21 -21 -15 -27
7 -4 14 -14 20 -32 20 -19 0 -32 9 -44 29 -9 16 -17 33 -17 38 1 4 7 -4 15
-19 8 -15 25 -29 37 -33z m-1752 35 c-8 -5 -19 -10 -25 -10 -5 0 -3 5 5 10 8
5 20 10 25 10 6 0 3 -5 -5 -10z m1267 -22 c-3 -8 -6 -5 -6 6 -1 11 2 17 5 13
3 -3 4 -12 1 -19z m-1832 -8 c3 -5 -4 -6 -15 -3 -11 3 -22 9 -25 13 -3 5 4 6
15 3 11 -3 22 -9 25 -13z m1760 10 c3 -6 -1 -7 -9 -4 -18 7 -21 14 -7 14 6 0
13 -4 16 -10z m-2264 -17 c13 -16 12 -17 -3 -4 -17 13 -22 21 -14 21 2 0 10
-8 17 -17z m1069 13 c0 -2 -12 -11 -27 -20 l-28 -17 24 20 c23 21 31 25 31 17z
m-525 -24 c-3 -3 -11 0 -18 7 -9 10 -8 11 6 5 10 -3 15 -9 12 -12z m-494 -29
c13 -15 17 -22 8 -15 -9 6 -20 8 -25 4 -5 -4 -6 -3 -2 2 4 5 3 15 -3 23 -21
25 -3 13 22 -14z m105 -5 l29 -33 -30 25 c-16 14 -34 28 -39 32 -6 5 -6 8 0 8
6 0 23 -15 40 -32z m124 22 c0 -5 -2 -10 -4 -10 -3 0 -8 5 -11 10 -3 6 -1 10
4 10 6 0 11 -4 11 -10z m720 -10 c-8 -5 -19 -10 -25 -10 -5 0 -3 5 5 10 8 5
20 10 25 10 6 0 3 -5 -5 -10z m1343 -30 c-7 -8 -22 24 -16 34 4 5 10 1 13 -10
4 -10 6 -21 3 -24z m1087 25 c18 -9 31 -11 35 -5 3 6 11 10 17 10 6 0 6 -6 -2
-15 -14 -17 -40 -12 -75 11 -26 19 -11 18 25 -1z m-4193 -27 c-3 -8 -6 -5 -6
6 -1 11 2 17 5 13 3 -3 4 -12 1 -19z m310 0 c-3 -8 -6 -5 -6 6 -1 11 2 17 5
13 3 -3 4 -12 1 -19z m808 -13 l30 -25 -37 21 c-21 11 -38 23 -38 25 0 10 17
2 45 -21z m2765 22 c0 -2 -15 -16 -32 -33 l-33 -29 29 33 c28 30 36 37 36 29z
m-3590 -11 c0 -11 -19 -15 -25 -6 -3 5 1 10 9 10 9 0 16 -2 16 -4z m1343 -3
c-7 -2 -19 -2 -25 0 -7 3 -2 5 12 5 14 0 19 -2 13 -5z m2027 -8 c0 -8 -2 -15
-4 -15 -2 0 -6 7 -10 15 -3 8 -1 15 4 15 6 0 10 -7 10 -15z m307 9 c-3 -3 -12
-4 -19 -1 -8 3 -5 6 6 6 11 1 17 -2 13 -5z m46 -1 c-7 -2 -19 -2 -25 0 -7 3
-2 5 12 5 14 0 19 -2 13 -5z m70 -23 c4 0 5 4 2 10 -4 6 1 7 11 3 14 -5 14 -7
1 -15 -17 -9 -67 9 -67 24 0 5 10 2 22 -6 12 -9 26 -16 31 -16z m-4096 -22
c-3 -8 -6 -5 -6 6 -1 11 2 17 5 13 3 -3 4 -12 1 -19z m1687 13 c18 -7 18 -8 3
-14 -9 -3 -17 -2 -17 3 0 5 -8 11 -17 13 -12 3 -13 5 -3 5 8 0 24 -3 34 -7z
m1993 -33 c-3 -7 -5 -2 -5 12 0 14 2 19 5 13 2 -7 2 -19 0 -25z m474 15 c13
-16 12 -17 -3 -4 -10 7 -18 15 -18 17 0 8 8 3 21 -13z m-3908 -8 c-3 -9 -8
-14 -10 -11 -3 3 -2 9 2 15 9 16 15 13 8 -4z m707 -29 c0 -12 -5 -7 -19 24
-11 24 -11 24 3 6 9 -11 16 -24 16 -30z m270 8 c0 -2 -9 0 -20 6 -11 6 -20 13
-20 16 0 2 9 0 20 -6 11 -6 20 -13 20 -16z m423 19 c-7 -2 -19 -2 -25 0 -7 3
-2 5 12 5 14 0 19 -2 13 -5z m-763 -24 c0 -6 -4 -7 -10 -4 -5 3 -10 11 -10 16
0 6 5 7 10 4 6 -3 10 -11 10 -16z m2320 -9 c12 -16 19 -30 16 -30 -2 0 -14 14
-26 30 -12 17 -19 30 -16 30 2 0 14 -13 26 -30z m-3003 -2 c-3 -8 -6 -5 -6 6
-1 11 2 17 5 13 3 -3 4 -12 1 -19z m1340 16 c-3 -3 -12 -4 -19 -1 -8 3 -5 6 6
6 11 1 17 -2 13 -5z m23 -42 c19 -6 27 -11 17 -11 -25 -1 -87 29 -87 42 0 5 8
3 18 -6 9 -8 33 -20 52 -25z m225 18 c-3 -5 -13 -6 -22 -3 -10 4 -14 2 -10 -4
5 -7 -1 -9 -14 -6 -20 6 -20 7 7 18 30 13 48 10 39 -5z m1058 -55 c42 -23 48
-25 67 -25 6 0 10 -8 10 -18 0 -10 5 -23 12 -30 7 -7 8 -12 2 -12 -5 0 -15 9
-22 20 -16 26 -86 70 -112 70 -13 0 -20 7 -20 18 0 10 -3 22 -7 28 -5 5 0 1
10 -10 10 -10 37 -29 60 -41z m847 55 c0 -5 -5 -10 -11 -10 -5 0 -7 5 -4 10 3
6 8 10 11 10 2 0 4 -4 4 -10z m117 -37 c-3 -10 -5 -2 -5 17 0 19 2 27 5 18 2
-10 2 -26 0 -35z m-2871 -22 c27 -30 39 -48 27 -40 -22 15 -83 86 -83 97 0 3
1 3 3 1 2 -2 26 -28 53 -58z m175 22 c13 -16 12 -17 -3 -4 -10 7 -18 15 -18
17 0 8 8 3 21 -13z m2577 -14 c-3 -8 -7 -3 -11 10 -4 17 -3 21 5 13 5 -5 8
-16 6 -23z m-447 -1 c11 -21 11 -22 -4 -9 -10 7 -17 17 -17 22 0 15 9 10 21
-13z m853 6 c8 -21 8 -24 -3 -24 -5 0 -11 9 -14 20 -6 24 8 27 17 4z m-2990
-20 c3 -8 2 -12 -4 -9 -6 3 -10 10 -10 16 0 14 7 11 14 -7z m606 12 c0 -2 -8
-10 -17 -17 -16 -13 -17 -12 -4 4 13 16 21 21 21 13z m2698 -21 c-3 -3 -9 2
-12 12 -6 14 -5 15 5 6 7 -7 10 -15 7 -18z m-601 -7 c-3 -8 -6 -5 -6 6 -1 11
2 17 5 13 3 -3 4 -12 1 -19z m131 -13 c-3 -3 -9 2 -12 12 -6 14 -5 15 5 6 7
-7 10 -15 7 -18z m-3640 -30 c-12 -24 -23 -43 -26 -41 -4 5 36 86 43 86 3 0
-5 -20 -17 -45z m-331 13 c-3 -8 -6 -5 -6 6 -1 11 2 17 5 13 3 -3 4 -12 1 -19z
m1157 14 c2 -4 -5 -9 -17 -9 -17 -2 -19 0 -7 7 18 12 18 12 24 2z m1663 -14
c-3 -8 -6 -5 -6 6 -1 11 2 17 5 13 3 -3 4 -12 1 -19z m1102 -23 c0 -5 -4 -3
-9 5 -5 8 -9 22 -9 30 0 16 17 -16 18 -35z m375 29 c4 -10 1 -14 -6 -12 -15 5
-23 28 -10 28 5 0 13 -7 16 -16z m206 -59 c0 -5 14 -25 31 -43 17 -18 29 -35
26 -38 -5 -5 -73 83 -102 131 -17 28 -16 28 13 -5 17 -19 31 -39 32 -45z
m-2830 61 c0 -2 -7 -7 -16 -10 -8 -3 -12 -2 -9 4 6 10 25 14 25 6z m1638 -21
c-3 -3 -9 2 -12 12 -6 14 -5 15 5 6 7 -7 10 -15 7 -18z m699 19 c-3 -3 -12 -4
-19 -1 -8 3 -5 6 6 6 11 1 17 -2 13 -5z m123 -25 c-12 -40 -16 -44 -24 -24 -3
9 -2 13 4 10 6 -3 10 2 10 13 0 16 8 32 16 32 1 0 -1 -14 -6 -31z m130 11 c0
-11 -4 -20 -9 -20 -6 0 -9 9 -8 20 1 11 5 20 9 20 4 0 8 -9 8 -20z m-3164 -48
c11 -7 7 -6 -11 2 -17 8 -39 24 -50 37 -19 23 -19 22 11 -1 17 -14 40 -31 50
-38z m534 44 c0 -2 -7 -7 -16 -10 -8 -3 -12 -2 -9 4 6 10 25 14 25 6z m1197
-38 c-3 -7 -5 -2 -5 12 0 14 2 19 5 13 2 -7 2 -19 0 -25z m1491 7 c-3 -3 -9 2
-12 12 -6 14 -5 15 5 6 7 -7 10 -15 7 -18z m-2823 -5 c-3 -5 2 -10 11 -10 10
0 15 -3 11 -6 -10 -10 -39 5 -32 16 3 5 8 10 11 10 3 0 2 -4 -1 -10z m2745 2
c0 -5 -7 -17 -15 -28 -14 -18 -14 -17 -4 9 12 27 19 34 19 19z m-1262 -27 c1
-13 -2 -26 -7 -29 -4 -3 -8 8 -9 24 -1 36 13 40 16 5z m760 0 c-3 -3 -9 2 -12
12 -6 14 -5 15 5 6 7 -7 10 -15 7 -18z m347 5 c-10 -11 -22 -20 -28 -20 -5 0
1 9 14 20 31 25 37 25 14 0z m-2515 -10 c10 -6 30 -11 44 -12 13 -1 22 -7 19
-12 -4 -6 1 -6 13 -1 27 12 73 10 87 -4 9 -9 8 -11 -5 -6 -9 4 -32 2 -51 -3
-26 -7 -41 -7 -54 2 -10 7 -36 20 -58 29 -22 9 -34 16 -27 16 7 1 22 -4 32 -9z
m1265 -1 c-7 -11 -35 -12 -35 -1 0 4 9 8 20 9 11 1 18 -2 15 -8z m-2768 -31
c-3 -7 -5 -2 -5 12 0 14 2 19 5 13 2 -7 2 -19 0 -25z m2723 29 c-3 -3 -29 -8
-59 -11 -29 -4 -58 -9 -62 -12 -9 -5 -13 9 -5 17 3 2 33 6 68 7 34 2 61 1 58
-1z m1100 -32 c0 -5 -5 -3 -10 5 -5 8 -10 20 -10 25 0 6 5 3 10 -5 5 -8 10
-19 10 -25z m120 25 c-12 -8 -12 -10 5 -11 11 -1 26 -2 32 -2 7 1 10 -3 7 -8
-8 -14 -30 -11 -54 9 l-22 18 23 1 c19 2 20 0 9 -7z m162 -23 c-18 -18 -30
-36 -26 -39 8 -9 -43 -41 -55 -34 -5 3 -11 2 -13 -4 -1 -5 -19 -12 -38 -15
l-35 -6 35 17 c19 9 43 16 52 16 10 0 17 3 15 7 -2 8 82 90 92 91 3 0 -10 -15
-27 -33z m-1543 -1 c-13 -5 -39 -18 -56 -29 -26 -15 -32 -15 -27 -4 5 15 62
44 77 39 4 -1 7 3 7 9 0 5 5 7 12 3 8 -5 4 -11 -13 -18z m1627 9 c-1 -8 -5
-17 -8 -21 -5 -4 -4 16 1 34 3 9 9 -1 7 -13z m143 -49 c11 -7 35 -46 28 -46
-8 0 -77 93 -77 104 0 6 9 -3 19 -20 11 -18 24 -35 30 -38z m-3319 44 c8 -5
11 -10 5 -10 -5 0 -17 5 -25 10 -8 5 -10 10 -5 10 6 0 17 -5 25 -10z m2677
-16 c-9 -9 -28 6 -21 18 4 6 10 6 17 -1 6 -6 8 -13 4 -17z m453 23 c0 -2 -12
-14 -27 -28 l-28 -24 24 28 c23 25 31 32 31 24z m-3090 -11 c0 -3 -4 -8 -10
-11 -5 -3 -10 -1 -10 4 0 6 5 11 10 11 6 0 10 -2 10 -4z m53 -8 c-2 -5 -10 -8
-18 -8 -8 0 -16 3 -18 8 -3 4 5 7 18 7 13 0 21 -3 18 -7z m420 5 c-7 -2 -19
-2 -25 0 -7 3 -2 5 12 5 14 0 19 -2 13 -5z m1380 -40 c-3 -7 2 -15 10 -19 9
-3 18 -13 22 -22 4 -11 -2 -9 -19 7 -15 14 -26 35 -26 50 0 19 3 22 9 12 5 -8
7 -20 4 -28z m-2906 5 c-3 -8 -6 -5 -6 6 -1 11 2 17 5 13 3 -3 4 -12 1 -19z
m1013 -8 c-6 -12 -14 -20 -17 -17 -2 3 1 14 8 26 17 26 24 19 9 -9z m267 -60
c17 -1 17 -1 1 -11 -14 -8 -24 -5 -44 14 -14 13 -43 35 -64 48 -22 13 -40 28
-40 32 0 5 29 -12 64 -37 36 -25 73 -46 83 -46z m2573 60 c12 -16 19 -30 16
-30 -2 0 -14 14 -26 30 -12 17 -19 30 -16 30 2 0 14 -13 26 -30z m-142 0 c7
-11 11 -20 9 -20 -2 0 -12 9 -22 20 -10 11 -14 20 -9 20 5 0 15 -9 22 -20z
m468 -32 c-14 -22 -15 -20 -8 22 4 28 6 31 12 15 4 -11 2 -28 -4 -37z m-2610
-12 c-34 -30 -47 -48 -43 -60 4 -9 13 -16 22 -16 24 0 17 -15 -7 -16 -13 0
-40 -3 -60 -6 -21 -3 -35 -2 -32 3 3 5 -2 9 -11 9 -9 0 -13 -4 -10 -10 7 -12
3 -12 -19 -4 -11 4 11 21 71 56 49 27 97 58 108 69 11 10 22 19 25 19 3 -1
-17 -20 -44 -44z m874 19 c-13 -14 -25 -23 -27 -21 -6 6 30 46 41 46 5 0 -1
-11 -14 -25z m-2190 -5 c0 -5 -5 -10 -11 -10 -5 0 -7 5 -4 10 3 6 8 10 11 10
2 0 4 -4 4 -10z m250 0 c0 -5 -2 -10 -4 -10 -3 0 -8 5 -11 10 -3 6 -1 10 4 10
6 0 11 -4 11 -10z m4050 -22 l23 -33 -26 24 c-15 14 -27 28 -27 33 0 14 5 9
30 -24z m-1497 -24 c4 -24 4 -24 -13 -7 -9 10 -13 20 -8 21 5 2 3 11 -4 20
-11 15 -11 15 3 4 9 -7 19 -24 22 -38z m492 36 c3 -5 1 -10 -4 -10 -6 0 -11
-10 -12 -22 0 -22 -1 -22 -8 -3 -13 33 7 62 24 35z m-3118 -6 c-3 -3 -12 -4
-19 -1 -8 3 -5 6 6 6 11 1 17 -2 13 -5z m53 2 c0 -3 -4 -8 -10 -11 -5 -3 -10
-1 -10 4 0 6 5 11 10 11 6 0 10 -2 10 -4z m113 -3 c-7 -2 -19 -2 -25 0 -7 3
-2 5 12 5 14 0 19 -2 13 -5z m38 -2 c4 7 11 10 14 7 10 -10 -4 -28 -21 -28 -8
0 -14 8 -13 18 0 12 2 13 6 3 4 -11 7 -11 14 0z m3779 -30 c12 -12 10 -11 -9
0 -14 9 -27 22 -29 30 -3 11 -2 11 9 -1 8 -8 21 -21 29 -29z m-4060 25 c0 -2
-7 -7 -16 -10 -8 -3 -12 -2 -9 4 6 10 25 14 25 6z m173 -3 c-7 -2 -19 -2 -25
0 -7 3 -2 5 12 5 14 0 19 -2 13 -5z m485 -33 c-2 -7 -10 1 -17 16 -12 27 -11
28 4 12 10 -9 16 -21 13 -28z m128 30 c8 0 14 -5 14 -11 0 -6 -9 -8 -20 -4
-13 4 -20 2 -20 -7 0 -10 -3 -9 -10 2 -14 22 -12 33 6 26 9 -3 22 -6 30 -6z
m1840 -4 c7 -8 18 -16 24 -18 6 -2 13 -16 16 -32 l5 -29 -39 39 c-21 21 -37
42 -35 47 6 10 13 9 29 -7z m624 -26 c14 -22 29 -40 33 -40 5 0 7 -6 4 -14 -7
-18 38 -60 54 -50 8 5 11 2 6 -8 -3 -10 4 -25 18 -38 17 -16 24 -18 28 -8 4 9
6 7 6 -4 1 -10 -3 -18 -7 -18 -11 0 -122 114 -122 126 0 5 -14 29 -31 52 -17
23 -27 42 -22 42 4 0 19 -18 33 -40z m150 25 c7 -9 8 -15 2 -15 -5 0 -12 7
-16 15 -3 8 -4 15 -2 15 2 0 9 -7 16 -15z m-3445 -13 c-3 -3 -11 0 -18 7 -9
10 -8 11 6 5 10 -3 15 -9 12 -12z m911 9 c-3 -5 -17 -8 -31 -8 -13 0 -22 3
-19 8 3 5 16 9 30 9 14 0 23 -4 20 -9z m1153 -29 c-19 -21 -37 -37 -41 -35 -8
4 53 72 66 73 4 0 -7 -17 -25 -38z m-2372 -14 c-3 -7 -5 -2 -5 12 0 14 2 19 5
13 2 -7 2 -19 0 -25z m2593 28 c0 -8 -92 -58 -97 -53 -4 5 4 11 67 44 27 14
30 15 30 9z m717 -28 c-3 -8 -6 -5 -6 6 -1 11 2 17 5 13 3 -3 4 -12 1 -19z
m1288 2 c10 -11 16 -20 13 -20 -3 0 -13 9 -23 20 -10 11 -16 20 -13 20 3 0 13
-9 23 -20z m-3567 -2 c-2 -7 3 -12 10 -10 7 1 15 -5 18 -13 3 -8 11 -12 18 -8
6 3 8 3 4 -2 -4 -4 -3 -15 3 -24 6 -9 0 -3 -15 12 -14 15 -26 25 -26 21 0 -3
-7 -1 -15 6 -8 7 -12 16 -9 21 8 13 14 11 12 -3z m165 -54 c77 -45 76 -44 41
-44 -20 0 -25 3 -16 9 11 7 10 10 -3 15 -9 3 -25 6 -36 6 -10 0 -19 4 -19 8 0
4 -9 9 -20 10 -45 4 -50 6 -50 18 0 8 8 10 23 7 18 -5 20 -3 10 8 -7 7 -13 18
-13 24 0 5 5 2 11 -7 5 -10 38 -34 72 -54z m517 56 c0 -5 -5 -10 -11 -10 -5 0
-7 5 -4 10 3 6 8 10 11 10 2 0 4 -4 4 -10z m990 6 c0 -2 -7 -6 -15 -10 -8 -3
-15 -1 -15 4 0 6 7 10 15 10 8 0 15 -2 15 -4z m852 -41 c9 -20 9 -20 -6 -1 -9
11 -16 27 -15 35 0 14 1 14 6 1 3 -8 10 -24 15 -35z m298 -29 c0 3 24 -14 53
-38 28 -25 67 -55 85 -67 18 -13 31 -25 29 -28 -5 -5 -107 65 -119 82 -4 5 -8
6 -8 1 0 -5 -27 18 -60 50 -33 33 -60 64 -60 69 0 6 18 -9 40 -32 22 -23 40
-40 40 -37z m-777 42 c9 -31 2 -33 -11 -3 -6 14 -8 25 -3 25 5 0 11 -10 14
-22z m-346 6 c-3 -3 -12 -4 -19 -1 -8 3 -5 6 6 6 11 1 17 -2 13 -5z m-2730
-36 c-3 -7 -5 -2 -5 12 0 14 2 19 5 13 2 -7 2 -19 0 -25z m587 3 c-2 -3 -12 3
-22 13 -16 17 -16 18 5 5 12 -7 20 -15 17 -18z m2723 7 c-3 -8 -6 -5 -6 6 -1
11 2 17 5 13 3 -3 4 -12 1 -19z m-1787 -9 c-46 -36 -80 -60 -80 -56 0 6 92 77
99 77 3 0 -5 -9 -19 -21z m780 -29 c-12 -16 -26 -30 -33 -30 -6 0 -1 9 10 20
12 10 25 30 29 42 4 13 9 17 11 11 3 -7 -5 -26 -17 -43z m1773 26 c-10 -13
-20 -22 -22 -20 -4 4 29 44 36 44 2 0 -4 -11 -14 -24z m-2383 1 c0 -2 -10 -12
-22 -23 l-23 -19 19 23 c18 21 26 27 26 19z m1065 -17 c10 -11 16 -20 13 -20
-3 0 -13 9 -23 20 -10 11 -16 20 -13 20 3 0 13 -9 23 -20z m-2120 -8 c-3 -3
-11 0 -18 7 -9 10 -8 11 6 5 10 -3 15 -9 12 -12z m2928 1 c-4 -11 -3 -14 6 -9
6 4 10 4 9 -1 -2 -4 15 -25 36 -45 22 -21 35 -38 30 -38 -4 0 -28 19 -51 42
-41 40 -55 68 -33 68 5 0 6 -7 3 -17z m1085 -8 c-3 -3 -9 2 -12 12 -6 14 -5
15 5 6 7 -7 10 -15 7 -18z m-108 -10 c14 -19 14 -19 -2 -6 -10 7 -18 18 -18
24 0 6 1 8 3 6 1 -2 9 -13 17 -24z m-3865 -13 c-3 -3 -11 0 -18 7 -9 10 -8 11
6 5 10 -3 15 -9 12 -12z m2408 3 c-3 -9 -8 -14 -10 -11 -3 3 -2 9 2 15 9 16
15 13 8 -4z m-247 -17 l19 -23 -22 19 c-16 13 -23 15 -23 6 0 -7 -3 -11 -6 -7
-5 5 3 27 10 27 2 0 11 -10 22 -22z m-1414 -1 c-6 -7 -33 -28 -59 -47 -56 -39
-47 -26 17 24 49 38 59 43 42 23z m218 9 c0 -2 -8 -10 -17 -17 -16 -13 -17
-12 -4 4 13 16 21 21 21 13z m620 -21 c-7 -8 -17 -15 -23 -15 -6 0 -2 7 9 15
25 19 30 19 14 0z m523 -42 c4 -49 3 -53 -17 -52 -11 0 -15 3 -8 6 7 3 12 24
12 56 0 63 7 58 13 -10z m1802 -5 c22 -77 19 -79 -26 -15 -31 43 -44 55 -50
45 -7 -10 -9 -9 -9 5 0 23 9 22 38 -5 l24 -23 -8 29 c-13 51 14 19 31 -36z
m-3901 44 c3 -5 0 -9 -7 -9 -7 0 -30 -3 -52 -6 l-40 -7 45 14 c25 8 46 14 47
15 1 1 4 -3 7 -7z m2393 -54 c-2 -13 -4 -3 -4 22 0 25 2 35 4 23 2 -13 2 -33
0 -45z m-365 20 c-8 -8 -9 -4 -5 13 4 13 8 18 11 10 2 -7 -1 -18 -6 -23z
m2098 -3 c0 -5 -5 -3 -10 5 -5 8 -10 20 -10 25 0 6 5 3 10 -5 5 -8 10 -19 10
-25z m-620 -7 c0 -12 -6 -9 -26 13 -19 22 -19 22 4 8 12 -8 22 -17 22 -21z
m-3633 16 c-3 -3 -12 -4 -19 -1 -8 3 -5 6 6 6 11 1 17 -2 13 -5z m1673 1 c0
-2 -10 -10 -22 -16 -21 -11 -22 -11 -9 4 13 16 31 23 31 12z m180 1 c0 -2 -8
-10 -17 -17 -16 -13 -17 -12 -4 4 13 16 21 21 21 13z m-2503 -28 c-3 -8 -6 -5
-6 6 -1 11 2 17 5 13 3 -3 4 -12 1 -19z m3884 2 c10 0 19 -6 19 -14 0 -7 14
-19 30 -26 17 -7 30 -17 30 -22 0 -11 -9 -6 -67 35 -24 17 -43 35 -42 41 0 6
3 5 6 -1 2 -7 13 -13 24 -13z m-1611 -7 c0 -6 -67 -33 -80 -33 -6 0 -8 5 -5
10 4 6 10 8 14 5 5 -2 16 1 26 9 16 12 45 18 45 9z m2074 -33 c11 -8 32 -26
46 -40 15 -14 46 -42 70 -64 24 -21 38 -37 33 -35 -10 4 -88 71 -173 149 -32
30 -24 27 24 -10z m-204 9 c0 -6 -4 -7 -10 -4 -5 3 -10 11 -10 16 0 6 5 7 10
4 6 -3 10 -11 10 -16z m-2105 0 c15 -7 11 -7 -15 -3 l-35 6 35 -37 c46 -48 59
-55 127 -60 82 -8 88 -19 16 -29 -34 -4 -44 -2 -52 12 -5 9 -13 13 -17 9 -8
-8 -114 90 -114 105 0 11 30 9 55 -3z m71 -11 c3 -4 -1 -5 -10 -4 -8 1 -18 5
-22 8 -3 4 1 5 10 4 8 -1 18 -5 22 -8z m64 -4 c0 -2 -7 -4 -15 -4 -8 0 -15 4
-15 10 0 5 7 7 15 4 8 -4 15 -8 15 -10z m780 13 c0 -2 -19 -21 -42 -42 l-43
-40 40 43 c36 39 45 47 45 39z m207 -29 c-3 -7 -5 -2 -5 12 0 14 2 19 5 13 2
-7 2 -19 0 -25z m-2451 4 c-10 -2 -22 0 -28 6 -6 6 0 7 19 4 21 -5 23 -7 9
-10z m2124 14 c0 -2 -8 -10 -17 -17 -16 -13 -17 -12 -4 4 13 16 21 21 21 13z
m1355 -14 c-3 -3 -11 0 -18 7 -9 10 -8 11 6 5 10 -3 15 -9 12 -12z m622 -29
c-3 -10 -5 -2 -5 17 0 19 2 27 5 18 2 -10 2 -26 0 -35z m-4867 34 c0 -2 -15
-16 -32 -33 l-33 -29 29 33 c28 30 36 37 36 29z m170 -7 c0 -5 -2 -10 -4 -10
-3 0 -8 5 -11 10 -3 6 -1 10 4 10 6 0 11 -4 11 -10z m2657 -12 c-3 -8 -6 -5
-6 6 -1 11 2 17 5 13 3 -3 4 -12 1 -19z m651 -3 c-3 -3 -9 2 -12 12 -6 14 -5
15 5 6 7 -7 10 -15 7 -18z m-837 -2 c12 -16 12 -17 -2 -6 -9 7 -20 9 -24 5 -5
-4 -5 -1 -1 6 9 16 11 15 27 -5z m1644 -12 c-6 -5 -25 10 -25 20 0 5 6 4 14
-3 8 -7 12 -15 11 -17z m-3775 0 c0 -8 -81 -23 -88 -16 -2 2 16 8 40 13 23 5
44 10 46 11 1 1 2 -3 2 -8z m337 3 c-3 -3 -12 -4 -19 -1 -8 3 -5 6 6 6 11 1
17 -2 13 -5z m3255 -20 c53 -37 48 -41 -9 -8 -58 33 -60 34 -43 34 8 0 31 -12
52 -26z m-3515 10 c-3 -3 -12 -4 -19 -1 -8 3 -5 6 6 6 11 1 17 -2 13 -5z m38
-12 c-3 -3 -11 0 -18 7 -9 10 -8 11 6 5 10 -3 15 -9 12 -12z m290 -3 c22 -10
29 -16 15 -13 -28 7 -80 33 -65 33 6 0 28 -9 50 -20z m-715 6 c0 -2 -10 -9
-22 -15 -22 -11 -22 -10 -4 4 21 17 26 19 26 11z m2465 -5 c3 -6 -1 -7 -9 -4
-18 7 -21 14 -7 14 6 0 13 -4 16 -10z m245 -10 c-24 -15 -36 -11 -14 4 10 8
21 12 24 10 2 -3 -2 -9 -10 -14z m-2225 -16 l30 -26 -35 23 c-45 29 -45 29
-34 29 5 0 23 -12 39 -26z m1876 9 c13 -16 12 -17 -3 -4 -17 13 -22 21 -14 21
2 0 10 -8 17 -17z m214 -15 c13 -1 27 -8 29 -15 7 -17 -59 -7 -96 15 -39 23
-35 34 7 16 19 -8 46 -15 60 -16z m-181 -44 c28 -13 45 -24 38 -24 -33 0 -122
61 -122 84 0 6 7 0 16 -13 9 -13 40 -34 68 -47z m-2444 52 c0 -2 -8 -10 -17
-17 -16 -13 -17 -12 -4 4 13 16 21 21 21 13z m840 0 c0 -2 -7 -6 -15 -10 -8
-3 -15 -1 -15 4 0 6 7 10 15 10 8 0 15 -2 15 -4z m414 -5 c-17 -4 -37 -11 -45
-15 -8 -4 -5 0 5 8 11 9 31 16 45 15 24 -1 24 -2 -5 -8z m83 -8 c10 -10 14
-15 8 -11 -6 4 -22 12 -36 17 -15 6 -18 10 -8 10 9 1 25 -7 36 -16z m893 8 c0
-16 -28 -20 -40 -5 -10 12 -8 14 14 14 14 0 26 -4 26 -9z m1474 -43 c16 -15
28 -29 25 -31 -2 -2 -24 17 -49 41 -46 46 -31 39 24 -10z m-2834 32 c0 -5 -2
-10 -4 -10 -3 0 -8 5 -11 10 -3 6 -1 10 4 10 6 0 11 -4 11 -10z m315 1 c3 -5
1 -12 -4 -15 -5 -3 -11 1 -15 9 -6 16 9 21 19 6z m1094 -5 c8 -10 9 -16 1 -21
-6 -4 -9 -1 -8 6 2 7 -2 13 -9 14 -18 0 -28 15 -11 15 9 0 21 -6 27 -14z m421
4 c12 -8 10 -9 -7 -7 -12 2 -26 6 -29 10 -11 11 19 8 36 -3z m145 -10 c-17
-19 -41 -18 -29 1 3 5 10 7 15 4 5 -4 9 -1 9 4 0 6 5 11 12 11 6 0 3 -8 -7
-20z m195 5 c0 -8 -4 -15 -10 -15 -5 0 -7 7 -4 15 4 8 8 15 10 15 2 0 4 -7 4
-15z m1000 0 c8 -5 19 -10 24 -10 5 0 11 -6 14 -12 2 -7 1 -13 -2 -13 -6 0
-76 41 -76 45 0 6 25 0 40 -10z m-3890 1 c0 -2 -8 -10 -17 -17 -16 -13 -17
-12 -4 4 13 16 21 21 21 13z m820 -7 c36 1 5 -15 -43 -22 -25 -4 -35 -2 -31 5
4 5 0 15 -7 20 -10 7 -3 7 21 3 19 -4 46 -7 60 -6z m3690 -20 c0 -11 -4 -18
-10 -14 -5 3 -7 12 -3 20 7 21 13 19 13 -6z m-1855 1 c3 -6 -1 -7 -9 -4 -18 7
-21 14 -7 14 6 0 13 -4 16 -10z m-2872 -22 c-9 -10 -19 -15 -22 -12 -3 4 0 9
7 11 6 3 10 8 8 12 -3 4 1 8 9 8 13 0 12 -4 -2 -19z m462 -9 c5 -5 18 -9 30
-10 11 0 15 -3 8 -5 -6 -3 -31 1 -56 10 -45 15 -177 20 -177 6 0 -5 -8 -7 -17
-6 -9 2 -27 -9 -40 -23 -12 -14 -23 -21 -23 -15 0 7 7 15 16 18 8 3 12 10 9
16 -3 5 -1 11 4 11 14 2 22 4 41 12 39 16 184 6 205 -14z m1955 -9 c16 -23 17
-28 6 -24 -9 3 -16 11 -16 17 0 6 -8 19 -17 30 -10 11 -13 17 -6 13 7 -3 22
-20 33 -36z m185 30 c3 -6 -1 -7 -9 -4 -18 7 -21 14 -7 14 6 0 13 -4 16 -10z
m245 0 c8 -5 11 -10 5 -10 -5 0 -17 5 -25 10 -8 5 -10 10 -5 10 6 0 17 -5 25
-10z m-1675 -9 c3 -5 0 -13 -6 -17 -8 -5 -9 -3 -5 5 6 9 -2 11 -31 7 -29 -4
-32 -4 -13 3 34 12 48 13 55 2z m1618 2 c-7 -2 -19 -2 -25 0 -7 3 -2 5 12 5
14 0 19 -2 13 -5z m286 -34 c-6 -13 -16 -28 -21 -33 -5 -6 -23 -30 -40 -54
-17 -24 -32 -41 -35 -38 -2 2 11 24 29 48 18 24 42 60 53 81 11 21 21 33 23
28 2 -6 -2 -20 -9 -32z m1135 9 c23 -21 36 -23 37 -5 0 6 4 3 8 -8 5 -11 7
-22 6 -23 -5 -5 -94 48 -101 59 -8 14 29 -3 50 -23z m335 -34 c6 -13 9 -24 8
-24 -2 0 -20 21 -42 47 -37 44 -37 45 -8 24 17 -13 36 -34 42 -47z m-1808 33
c-10 -9 -11 -8 -5 6 3 10 9 15 12 12 3 -3 0 -11 -7 -18z m2046 1 c-3 -8 -6 -5
-6 6 -1 11 2 17 5 13 3 -3 4 -12 1 -19z m-4667 -3 c-7 -9 -15 -13 -19 -10 -3
3 1 10 9 15 21 14 24 12 10 -5z m950 11 c0 -2 -9 -6 -20 -9 -11 -3 -18 -1 -14
4 5 9 34 13 34 5z m1564 -4 c3 -5 -8 -6 -25 -4 -16 2 -29 6 -29 8 0 8 49 4 54
-4z m-1632 -9 c-29 -6 -38 -28 -21 -51 13 -15 12 -16 -3 -3 -10 7 -18 20 -18
27 0 8 -6 14 -12 15 -20 2 34 17 57 17 16 -1 15 -2 -3 -5z m351 -13 c3 -11 1
-18 -4 -14 -5 3 -9 12 -9 20 0 20 7 17 13 -6z m-1173 -10 c0 -5 -5 -10 -11
-10 -5 0 -7 5 -4 10 3 6 8 10 11 10 2 0 4 -4 4 -10z m134 -9 c-84 -21 -199
-103 -232 -168 l-18 -34 0 35 c0 22 5 36 12 36 7 0 25 15 39 34 14 19 42 42
60 51 19 9 35 20 35 24 0 11 65 29 105 29 l30 0 -31 -7z m1259 -11 c-3 -12 -8
-19 -11 -16 -5 6 5 36 12 36 2 0 2 -9 -1 -20z m-418 0 c3 -6 -1 -7 -9 -4 -18
7 -21 14 -7 14 6 0 13 -4 16 -10z m240 0 c3 -6 -1 -7 -9 -4 -18 7 -21 14 -7
14 6 0 13 -4 16 -10z m149 -2 c-3 -4 -12 -8 -20 -8 -8 0 -13 4 -10 8 3 5 12 9
20 9 8 0 13 -4 10 -9z m975 -78 c21 -26 63 -58 94 -74 32 -16 57 -29 57 -30 0
0 -15 -1 -34 -1 -19 0 -34 2 -34 5 1 21 -4 29 -17 24 -8 -4 -15 -1 -15 6 0 6
-5 8 -10 5 -6 -3 -14 4 -20 17 -5 13 -30 46 -54 73 -25 28 -46 55 -46 60 1 6
10 -1 21 -15 11 -14 37 -45 58 -70z m2086 63 c-2 -16 -4 -32 -4 -37 -1 -5 -8
-3 -16 4 -13 10 -12 15 3 36 21 29 21 30 17 -3z m-4445 7 c0 -5 -7 -10 -16
-10 -8 0 -12 5 -9 10 3 6 10 10 16 10 5 0 9 -4 9 -10z m25 0 c3 -5 1 -10 -4
-10 -6 0 -11 5 -11 10 0 6 2 10 4 10 3 0 8 -4 11 -10z m4165 -36 c8 -9 -3 -4
-25 10 -51 35 -57 42 -19 23 17 -9 37 -23 44 -33z m100 31 c7 -9 8 -15 2 -15
-5 0 -12 7 -16 15 -3 8 -4 15 -2 15 2 0 9 -7 16 -15z m-2977 -2 c-7 -2 -19 -2
-25 0 -7 3 -2 5 12 5 14 0 19 -2 13 -5z m-143 -19 c0 -2 -11 -4 -25 -4 -14 0
-25 4 -25 9 0 4 11 6 25 3 14 -2 25 -6 25 -8z m-1216 -18 c-3 -9 -10 -16 -15
-16 -5 0 -4 9 3 20 14 22 21 20 12 -4z m1260 5 c4 -5 -3 -7 -14 -4 -23 6 -26
13 -6 13 8 0 17 -4 20 -9z m3138 -46 c11 -21 8 -18 -32 30 -24 29 -24 29 -2
10 13 -11 28 -29 34 -40z m-507 7 c-3 -3 5 -17 17 -31 18 -20 16 -19 -10 4
-19 17 -38 38 -44 48 -9 18 -8 18 17 1 14 -9 23 -19 20 -22z m-2863 -67 l41
-50 -43 45 c-23 25 -54 58 -69 75 l-26 30 29 -25 c15 -14 46 -47 68 -75z
m3134 44 c3 -6 -5 -3 -20 6 -14 10 -26 19 -26 22 0 7 39 -17 46 -28z m178 -4
c11 -8 18 -17 15 -19 -2 -2 -20 10 -39 26 -34 29 -15 24 24 -7z m-4364 21 c0
-3 -4 -8 -10 -11 -5 -3 -10 -1 -10 4 0 6 5 11 10 11 6 0 10 -2 10 -4z m1604
-5 c-8 -8 -54 -7 -54 1 0 5 13 7 30 6 16 -1 27 -4 24 -7z m2396 -48 c0 -7 -58
36 -66 49 -4 7 9 -1 29 -16 20 -16 37 -30 37 -33z m667 35 c-3 -8 -6 -5 -6 6
-1 11 2 17 5 13 3 -3 4 -12 1 -19z m-3147 -15 c-14 -9 -34 -23 -46 -32 -11 -9
-5 -1 15 17 19 17 39 32 45 32 6 0 -1 -7 -14 -17z m-1843 -15 c-3 -8 -6 -5 -6
6 -1 11 2 17 5 13 3 -3 4 -12 1 -19z m127 -143 c3 -22 9 -54 15 -72 7 -24 6
-33 -4 -37 -10 -3 -12 0 -8 11 4 11 2 14 -5 9 -7 -4 -12 -1 -12 9 0 9 5 13 10
10 6 -3 10 -2 10 3 0 6 -7 12 -15 16 -11 4 -14 13 -9 31 4 15 1 32 -6 40 -10
12 -10 15 0 15 9 0 9 4 3 13 -9 10 -11 102 -3 117 1 3 6 -24 10 -60 5 -36 11
-83 14 -105z m1756 145 c-6 -11 -13 -20 -16 -20 -2 0 0 9 6 20 6 11 13 20 16
20 2 0 0 -9 -6 -20z m1290 5 c-7 -8 -18 -15 -26 -15 -7 0 -17 -8 -23 -17 -5
-10 -13 -15 -17 -11 -3 4 -16 3 -28 -3 -20 -10 -20 -10 -2 5 11 9 25 16 30 16
6 0 22 9 36 20 30 23 48 26 30 5z m1390 -11 c0 -2 -9 0 -20 6 -11 6 -20 13
-20 16 0 2 9 0 20 -6 11 -6 20 -13 20 -16z m-3862 -10 c-4 -3 -19 -4 -35 -2
l-28 4 25 11 c23 10 51 1 38 -13z m71 17 c35 -1 18 -13 -22 -15 -19 -1 -34 4
-34 10 0 7 7 10 16 9 9 -2 27 -4 40 -4z m-285 -9 c-6 -4 -14 -15 -17 -25 -7
-20 -29 -19 -33 1 -1 7 0 8 3 2 7 -16 26 -12 20 4 -6 14 6 24 28 25 6 0 6 -2
-1 -7z m121 -2 c-3 -5 -16 -10 -28 -9 -20 1 -20 2 3 9 14 4 26 8 28 9 2 1 0
-3 -3 -9z m232 4 c-3 -3 -12 -4 -19 -1 -8 3 -5 6 6 6 11 1 17 -2 13 -5z m493
-15 c17 -30 6 -34 -14 -4 -9 14 -12 25 -7 25 6 0 15 -9 21 -21z m-400 -6 c2
-2 -2 -8 -10 -13 -10 -6 -17 -4 -23 6 -5 8 -12 12 -17 9 -5 -3 -12 0 -16 6 -4
8 3 9 27 4 19 -4 36 -9 39 -12z m3770 -82 c72 -58 141 -119 113 -100 -11 8
-55 42 -96 76 -41 34 -91 72 -111 85 -20 13 -36 27 -36 31 0 8 39 -19 130 -92z
m-4703 67 c-3 -8 -6 -5 -6 6 -1 11 2 17 5 13 3 -3 4 -12 1 -19z m543 18 c0 -3
-4 -8 -10 -11 -5 -3 -10 -1 -10 4 0 6 5 11 10 11 6 0 10 -2 10 -4z m4220 -5
c0 -5 10 -13 23 -17 12 -4 29 -15 38 -25 9 -11 22 -19 28 -19 7 0 9 -5 6 -10
-4 -6 -25 3 -51 22 -53 38 -72 58 -55 58 6 0 11 -4 11 -9z m-4555 -80 c5 -16
4 -21 -4 -17 -6 4 -11 16 -11 27 0 11 -6 22 -14 25 -9 3 -12 13 -8 27 5 20 6
20 18 -8 6 -17 15 -41 19 -54z m775 69 c13 -9 13 -10 0 -10 -8 0 -22 5 -30 10
-13 9 -13 10 0 10 8 0 22 -5 30 -10z m3401 -7 c13 -16 12 -17 -3 -4 -10 7 -18
15 -18 17 0 8 8 3 21 -13z m-1420 -3 c11 0 17 -4 14 -10 -10 -17 -62 -12 -62
5 0 10 6 14 14 10 8 -3 24 -5 34 -5z m89 -7 c0 -9 -11 -12 -29 -11 -22 2 -27
5 -20 14 13 16 49 14 49 -3z m-2026 1 c25 -10 19 -22 -9 -16 -14 2 -22 8 -19
13 6 11 8 11 28 3z m387 -19 c3 2 5 -5 5 -15 0 -11 -1 -20 -1 -20 -1 0 -12 15
-25 33 -19 26 -20 29 -3 14 11 -9 22 -15 24 -12z m415 0 c-9 -9 -16 -13 -16
-8 0 12 22 34 28 28 2 -2 -3 -11 -12 -20z m-1829 -7 c-3 -8 -6 -5 -6 6 -1 11
2 17 5 13 3 -3 4 -12 1 -19z m435 5 c-6 -2 -9 -10 -6 -15 4 -7 2 -8 -5 -4 -13
9 -5 26 12 25 9 0 8 -2 -1 -6z m711 -55 c3 -10 9 -18 14 -17 22 4 33 -3 33
-18 0 -10 -3 -14 -8 -8 -4 6 -19 16 -34 24 -15 8 -26 18 -25 23 1 5 -8 17 -20
25 -16 10 -23 12 -23 4 0 -7 -4 -9 -10 -6 -5 3 -10 13 -10 21 0 22 77 -22 83
-48z m3790 47 c-3 -9 -8 -14 -10 -11 -3 3 -2 9 2 15 9 16 15 13 8 -4z m-4552
-18 c-10 -9 -11 -8 -5 6 3 10 9 15 12 12 3 -3 0 -11 -7 -18z m4079 -2 c13 -14
21 -25 18 -25 -2 0 -15 11 -28 25 -13 14 -21 25 -18 25 2 0 15 -11 28 -25z
m-4272 -61 c-13 -13 -15 -9 -15 32 l-1 47 16 -32 c13 -28 13 -34 0 -47z m1362
66 c0 -5 -5 -10 -11 -10 -5 0 -7 5 -4 10 3 6 8 10 11 10 2 0 4 -4 4 -10z
m-1553 -32 c-3 -7 -5 -2 -5 12 0 14 2 19 5 13 2 -7 2 -19 0 -25z m1718 20 c4
4 3 -3 -3 -14 -6 -12 -8 -24 -5 -28 3 -3 1 -6 -5 -6 -7 0 -12 6 -13 13 0 6 -2
20 -4 30 -3 14 0 16 9 8 7 -6 16 -7 21 -3z m3170 -8 c3 -6 -1 -7 -9 -4 -18 7
-21 14 -7 14 6 0 13 -4 16 -10z m-3338 -25 c0 -8 -4 -12 -9 -9 -4 3 -8 9 -8
15 0 5 4 9 8 9 5 0 9 -7 9 -15z m3423 -10 c13 -14 21 -25 18 -25 -2 0 -15 11
-28 25 -13 14 -21 25 -18 25 2 0 15 -11 28 -25z m-4754 -11 c-4 -9 -9 -15 -11
-12 -3 3 -3 13 1 22 4 9 9 15 11 12 3 -3 3 -13 -1 -22z m1571 4 c-3 -8 -6 -5
-6 6 -1 11 2 17 5 13 3 -3 4 -12 1 -19z m2731 2 c2 0 0 -4 -3 -10 -3 -5 -11
-10 -16 -10 -6 0 -7 5 -3 11 5 8 -1 10 -18 7 -15 -3 -25 0 -25 8 0 8 9 9 31 3
17 -5 32 -9 34 -9z m-4511 -12 c-3 -8 -6 -5 -6 6 -1 11 2 17 5 13 3 -3 4 -12
1 -19z m3202 6 c2 -2 -6 -4 -18 -4 -12 0 -31 -5 -42 -11 -19 -10 -19 -9 -9 10
8 17 17 20 38 15 15 -4 29 -8 31 -10z m1216 -4 c-3 -5 2 -10 11 -10 10 0 15
-3 11 -6 -10 -10 -39 5 -32 16 3 5 8 10 11 10 3 0 2 -4 -1 -10z m-4075 -4 c0
-2 -7 -7 -16 -10 -8 -3 -12 -2 -9 4 6 10 25 14 25 6z m1047 -28 c-3 -7 -5 -2
-5 12 0 14 2 19 5 13 2 -7 2 -19 0 -25z m153 22 c0 -5 -2 -10 -4 -10 -3 0 -8
5 -11 10 -3 6 -1 10 4 10 6 0 11 -4 11 -10z m419 -32 c-12 -22 -23 -24 -15 -2
6 16 6 16 -41 -3 -7 -3 -13 0 -13 7 0 6 4 9 8 6 4 -2 14 -1 22 4 7 5 22 8 31
7 14 -1 15 -5 8 -19z m2421 16 c0 -8 -19 -13 -24 -6 -3 5 1 9 9 9 8 0 15 -2
15 -3z m-3149 -21 c13 -16 12 -17 -3 -4 -10 7 -18 15 -18 17 0 8 8 3 21 -13z
m-1212 -38 c0 -5 -4 -3 -9 5 -5 8 -9 22 -9 30 0 16 17 -16 18 -35z m204 25 c3
-11 1 -18 -4 -14 -5 3 -9 12 -9 20 0 20 7 17 13 -6z m67 -9 c-5 -11 -15 -23
-20 -26 -6 -4 -8 -11 -5 -16 4 -5 1 -9 -4 -9 -16 0 -14 7 11 40 25 34 34 39
18 11z m1580 4 c-14 -17 -30 -20 -30 -6 0 5 8 12 18 14 9 3 19 5 21 6 2 0 -2
-6 -9 -14z m3166 -17 l29 -33 -32 29 c-31 28 -38 36 -30 36 2 0 16 -15 33 -32z
m-4862 6 c3 -8 2 -12 -4 -9 -6 3 -10 10 -10 16 0 14 7 11 14 -7z m1754 -14
c-7 -10 -14 -17 -17 -15 -4 4 18 35 25 35 2 0 -1 -9 -8 -20z m-1688 -35 c0 -5
-5 -3 -10 5 -5 8 -10 20 -10 25 0 6 5 3 10 -5 5 -8 10 -19 10 -25z m4517 29
c-3 -3 -12 -4 -19 -1 -8 3 -5 6 6 6 11 1 17 -2 13 -5z m-4610 -10 c-3 -3 -12
-4 -19 -1 -8 3 -5 6 6 6 11 1 17 -2 13 -5z m19 -10 c-3 -8 -1 -24 5 -35 9 -18
8 -19 -10 -7 -26 16 -35 38 -16 38 8 0 15 5 15 10 0 6 3 10 6 10 3 0 3 -7 0
-16z m1114 -19 c0 -5 -5 -3 -10 5 -5 8 -10 20 -10 25 0 6 5 3 10 -5 5 -8 10
-19 10 -25z m511 26 c7 11 9 10 9 -3 0 -10 -7 -16 -19 -15 -12 1 -17 6 -13 16
4 12 7 12 10 2 4 -11 6 -11 13 0z m2636 3 c-3 -3 -12 -4 -19 -1 -8 3 -5 6 6 6
11 1 17 -2 13 -5z m448 -65 c39 -43 39 -43 -15 6 -30 27 -57 51 -60 53 -3 3 4
0 15 -6 11 -6 38 -30 60 -53z m220 41 c10 -11 16 -20 13 -20 -3 0 -13 9 -23
20 -10 11 -16 20 -13 20 3 0 13 -9 23 -20z m-3187 -2 c-2 -6 -10 -14 -16 -16
-7 -2 -10 2 -6 12 7 18 28 22 22 4z m2451 8 c-10 -9 -89 -46 -89 -41 0 6 72
44 84 45 5 0 7 -2 5 -4z m-4315 -22 c3 -8 2 -12 -4 -9 -6 3 -10 10 -10 16 0
14 7 11 14 -7z m2936 0 c0 -8 -4 -13 -9 -10 -5 3 -32 -10 -60 -29 -72 -50 -76
-43 -5 9 66 50 74 53 74 30z m-1100 -24 c0 -5 -5 -10 -11 -10 -5 0 -7 5 -4 10
3 6 8 10 11 10 2 0 4 -4 4 -10z m3222 -9 c-9 -6 -10 -15 -3 -34 7 -18 7 -28 0
-33 -6 -3 -8 -18 -5 -32 12 -58 16 -123 9 -136 -5 -9 -9 11 -10 47 -1 34 -8
86 -16 116 -14 53 -14 55 7 72 11 9 23 15 26 13 2 -3 -1 -9 -8 -13z m-847 -1
c-3 -5 -12 -10 -18 -10 -7 0 -6 4 3 10 19 12 23 12 15 0z m-3267 -7 c-10 -2
-26 -2 -35 0 -10 3 -2 5 17 5 19 0 27 -2 18 -5z m169 1 c-3 -3 -12 -4 -19 -1
-8 3 -5 6 6 6 11 1 17 -2 13 -5z m757 -10 c3 -8 2 -12 -4 -9 -6 3 -10 1 -10
-6 0 -7 -2 -10 -5 -7 -5 5 4 38 10 38 2 0 6 -7 9 -16z m-1686 -14 c7 -11 11
-20 9 -20 -2 0 -12 9 -22 20 -10 11 -14 20 -9 20 5 0 15 -9 22 -20z m692 16
c0 -2 -9 -6 -20 -9 -11 -3 -18 -1 -14 4 5 9 34 13 34 5z m297 -2 c-3 -3 -12
-4 -19 -1 -8 3 -5 6 6 6 11 1 17 -2 13 -5z m53 -13 c0 -5 -9 -7 -20 -4 -11 3
-20 7 -20 9 0 2 9 4 20 4 11 0 20 -4 20 -9z m1835 -11 c10 -11 16 -20 13 -20
-3 0 -13 9 -23 20 -10 11 -16 20 -13 20 3 0 13 -9 23 -20z m-2284 -5 c-39 -18
-41 -18 -41 -6 0 5 10 12 23 14 45 9 51 6 18 -8z m3842 -9 c-10 -13 -20 -22
-22 -20 -4 4 29 44 36 44 2 0 -4 -11 -14 -24z m-4393 -1 c11 -13 10 -14 -4 -9
-9 3 -16 10 -16 15 0 13 6 11 20 -6z m1341 -2 c13 -16 12 -17 -3 -4 -10 7 -18
15 -18 17 0 8 8 3 21 -13z m-841 -2 c0 -5 -9 -12 -20 -16 -11 -3 -41 -21 -67
-39 -72 -49 -82 -52 -43 -14 19 19 37 33 38 32 2 -2 23 8 45 21 49 28 47 28
47 16z m2110 5 c0 -2 -7 -7 -16 -10 -8 -3 -12 -2 -9 4 6 10 25 14 25 6z m1410
-16 c-8 -5 -18 -6 -24 -3 -5 4 -1 10 10 13 24 9 34 2 14 -10z m-3970 -5 c4 3
10 -2 14 -10 6 -18 1 -19 -25 -4 -11 5 -16 15 -12 22 5 8 8 8 11 -1 2 -7 7
-10 12 -7z m1511 -28 c-13 -13 -15 1 -4 30 7 17 8 17 11 -1 2 -10 -1 -23 -7
-29z m988 18 c-25 -14 -61 -8 -38 5 7 5 19 6 27 2 10 -3 13 -1 8 6 -5 8 -2 10
10 5 14 -5 13 -8 -7 -18z m-1398 -36 c30 -28 38 -38 18 -22 -20 15 -49 38 -64
51 -16 12 -25 22 -19 22 6 0 35 -23 65 -51z m2822 32 c-3 -10 1 -30 8 -42 11
-22 11 -23 -4 -10 -17 13 -23 52 -10 64 10 11 11 8 6 -12z m-2595 -26 c-3 -3
-9 2 -12 12 -6 14 -5 15 5 6 7 -7 10 -15 7 -18z m1109 11 c0 -8 -6 -12 -15 -9
-11 5 -11 7 0 14 7 5 13 9 14 9 0 0 1 -6 1 -14z m-2367 -18 c0 -5 4 -7 9 -4
10 6 25 -24 16 -32 -3 -3 -5 0 -5 7 0 7 -4 10 -9 7 -4 -3 -18 5 -31 19 -22 23
-22 24 -1 18 11 -3 21 -10 21 -15z m2294 3 c3 -5 -6 -11 -21 -14 -26 -5 -26
-4 -8 9 22 17 22 17 29 5z m-1508 -8 c-3 -4 8 -23 26 -42 l33 -36 -37 34 c-39
36 -47 51 -26 51 6 0 8 -3 4 -7z m3745 -16 c-10 -9 -11 -8 -5 6 3 10 9 15 12
12 3 -3 0 -11 -7 -18z m-2347 5 c2 -4 -7 -8 -22 -9 -24 -2 -24 -1 -7 7 11 5
21 9 22 9 1 1 4 -3 7 -7z m186 -8 c0 -2 -17 -4 -37 -4 -24 0 -33 3 -25 9 12 7
62 4 62 -5z m-292 -2 c8 -6 2 -9 -18 -9 -20 0 -26 3 -18 9 7 4 15 8 18 8 3 0
11 -4 18 -8z m-1411 -8 c-3 -3 -12 -4 -19 -1 -8 3 -5 6 6 6 11 1 17 -2 13 -5z
m68 -12 c-3 -3 -11 0 -18 7 -9 10 -8 11 6 5 10 -3 15 -9 12 -12z m895 15 c0
-2 -12 -14 -27 -28 l-28 -24 24 28 c23 25 31 32 31 24z m239 -27 c7 0 9 -5 6
-10 -5 -8 -11 -8 -20 0 -9 8 -14 8 -17 -1 -2 -7 -8 -6 -17 5 -12 14 -11 16 5
9 17 -6 18 -5 4 13 -14 18 -14 18 6 2 11 -10 26 -18 33 -18z m618 24 c-3 -3
-12 -4 -19 -1 -8 3 -5 6 6 6 11 1 17 -2 13 -5z m-2293 -35 c-9 -11 -20 -16
-23 -13 -3 4 0 9 7 11 6 3 12 11 12 19 0 9 5 12 11 9 7 -5 4 -14 -7 -26z
m1602 19 c4 -7 3 -8 -4 -4 -7 4 -12 0 -12 -10 0 -10 -3 -15 -6 -11 -7 6 2 37
10 37 3 0 8 -5 12 -12z m1049 -8 c10 -11 16 -20 13 -20 -3 0 -13 9 -23 20 -10
11 -16 20 -13 20 3 0 13 -9 23 -20z m1038 5 c4 -8 3 -16 -1 -19 -4 -3 -9 4 -9
15 -2 23 3 25 10 4z m-3400 -2 c-7 -2 -19 -2 -25 0 -7 3 -2 5 12 5 14 0 19 -2
13 -5z m-558 -13 c3 -6 -1 -7 -9 -4 -18 7 -21 14 -7 14 6 0 13 -4 16 -10z
m182 -28 c7 -8 21 -12 32 -9 18 4 19 2 10 -14 -13 -26 -20 -24 -60 17 -24 25
-28 33 -14 28 11 -4 25 -13 32 -22z m253 25 c0 -2 -19 -21 -42 -42 l-43 -40
40 43 c36 39 45 47 45 39z m927 -19 c-3 -8 -6 -5 -6 6 -1 11 2 17 5 13 3 -3 4
-12 1 -19z m653 18 c0 -11 -19 -15 -25 -6 -3 5 1 10 9 10 9 0 16 -2 16 -4z
m2227 -2 c-3 -3 -12 -4 -19 -1 -8 3 -5 6 6 6 11 1 17 -2 13 -5z m-67 -14 c-8
-5 -19 -10 -25 -10 -5 0 -3 5 5 10 8 5 20 10 25 10 6 0 3 -5 -5 -10z m-2032
-15 c2 -1 -3 -5 -10 -8 -8 -2 -23 2 -33 10 -19 13 -18 14 10 7 17 -4 31 -8 33
-9z m1163 -22 c5 -13 13 -21 19 -18 5 3 7 0 4 -8 -3 -8 -1 -18 5 -22 6 -3 11
-12 11 -18 0 -7 -9 2 -21 18 -32 47 -52 88 -39 80 6 -4 15 -18 21 -32z m-2356
1 c9 -15 12 -23 6 -20 -11 7 -35 46 -28 46 3 0 12 -12 22 -26z m585 -83 c24
-25 27 -31 10 -20 -35 23 -58 58 -64 99 -5 34 -5 34 7 -4 6 -22 27 -56 47 -75z
m-1469 82 c13 -16 12 -17 -3 -4 -10 7 -18 15 -18 17 0 8 8 3 21 -13z m1317
-18 c-2 -3 -17 0 -34 4 -24 8 -25 9 -6 10 12 1 22 7 22 14 0 6 5 4 11 -6 6
-10 9 -20 7 -22z m802 31 c0 -3 -4 -8 -10 -11 -5 -3 -10 -1 -10 4 0 6 5 11 10
11 6 0 10 -2 10 -4z m-950 -29 c11 -5 9 -6 -4 -4 -11 1 -21 9 -23 17 -3 10 -2
11 4 4 4 -6 15 -14 23 -17z m1060 3 c79 -17 81 -19 34 -18 -27 1 -57 -2 -65
-7 -12 -7 -11 -6 1 10 14 17 13 18 -10 12 -15 -3 -33 0 -44 9 -25 18 -20 17
84 -6z m-1372 -25 c-3 -3 -9 2 -12 12 -6 14 -5 15 5 6 7 -7 10 -15 7 -18z m79
-2 c1 -19 -1 -22 -8 -12 -11 17 -12 39 -1 39 4 0 8 -12 9 -27z m1998 7 c10
-11 16 -20 13 -20 -3 0 -13 9 -23 20 -10 11 -16 20 -13 20 3 0 13 -9 23 -20z
m1477 6 c7 4 8 2 4 -4 -4 -6 -13 -9 -21 -6 -8 4 -12 11 -8 17 5 8 8 7 11 -1 2
-7 9 -9 14 -6z m131 -6 c3 -11 2 -22 -2 -24 -4 -3 -8 6 -9 20 -2 29 4 31 11 4z
m174 -12 c-3 -7 -5 -2 -5 12 0 14 2 19 5 13 2 -7 2 -19 0 -25z m-4682 2 c10
-11 16 -20 13 -20 -3 0 -13 9 -23 20 -10 11 -16 20 -13 20 3 0 13 -9 23 -20z
m940 0 c10 -11 16 -20 13 -20 -3 0 -13 9 -23 20 -10 11 -16 20 -13 20 3 0 13
-9 23 -20z m1901 -12 l29 -33 -32 29 c-31 28 -38 36 -30 36 2 0 16 -15 33 -32z
m-1956 -13 c0 -5 -5 -3 -10 5 -5 8 -10 20 -10 25 0 6 5 3 10 -5 5 -8 10 -19
10 -25z m1427 29 c-3 -3 -12 -4 -19 -1 -8 3 -5 6 6 6 11 1 17 -2 13 -5z m-765
-61 c8 -10 5 -13 -8 -13 -16 0 -17 -2 -4 -10 11 -8 5 -9 -20 -5 -41 7 -52 15
-21 15 16 0 23 8 28 33 5 24 8 27 11 12 2 -11 9 -26 14 -32z m935 41 c-3 -3
-12 -4 -19 -1 -8 3 -5 6 6 6 11 1 17 -2 13 -5z m1358 -14 c10 -11 16 -20 13
-20 -3 0 -13 9 -23 20 -10 11 -16 20 -13 20 3 0 13 -9 23 -20z m832 -12 c-3
-8 -6 -5 -6 6 -1 11 2 17 5 13 3 -3 4 -12 1 -19z m-4639 -24 c-3 -14 -5 -12
-10 9 -3 19 -2 25 4 19 6 -6 8 -18 6 -28z m539 4 c-3 -7 -5 -2 -5 12 0 14 2
19 5 13 2 -7 2 -19 0 -25z m206 2 c-3 -11 -10 -23 -16 -27 -6 -3 -7 -1 -3 5 4
7 2 12 -3 12 -6 0 -11 5 -11 11 0 5 5 7 10 4 6 -3 10 1 10 10 0 9 4 14 9 11 5
-3 7 -15 4 -26z m77 -5 c0 -5 -5 -3 -10 5 -5 8 -10 20 -10 25 0 6 5 3 10 -5 5
-8 10 -19 10 -25z m51 -6 c-5 -19 -10 -26 -10 -17 -1 9 -4 25 -7 35 -5 15 -4
15 5 3 9 -13 11 -12 11 4 0 11 3 17 6 14 3 -3 1 -21 -5 -39z m3250 10 c-13
-10 -31 -19 -40 -19 -9 1 -1 7 17 15 17 8 32 20 32 26 0 7 3 9 8 5 4 -4 -4
-16 -17 -27z m406 9 c-3 -8 -6 -5 -6 6 -1 11 2 17 5 13 3 -3 4 -12 1 -19z
m-3960 -25 c-3 -10 -5 -4 -5 12 0 17 2 24 5 18 2 -7 2 -21 0 -30z m3416 30
c-7 -2 -19 -2 -25 0 -7 3 -2 5 12 5 14 0 19 -2 13 -5z m-3523 -8 c0 -3 -9 -16
-21 -28 l-21 -22 13 28 c11 23 29 37 29 22z m548 -31 c-3 -14 -5 -12 -10 9 -3
19 -2 25 4 19 6 -6 8 -18 6 -28z m1636 27 c4 -5 -3 -7 -14 -4 -23 6 -26 13 -6
13 8 0 17 -4 20 -9z m262 -77 c21 -30 34 -57 31 -61 -4 -3 -7 -1 -7 6 0 7 -5
9 -12 5 -7 -5 -8 -3 -4 5 5 8 -10 36 -40 74 -26 34 -38 54 -26 43 12 -10 38
-43 58 -72z m1018 77 c4 -5 -3 -7 -14 -4 -23 6 -26 13 -6 13 8 0 17 -4 20 -9z
m-3751 -16 c-3 -9 -8 -14 -10 -11 -3 3 -2 9 2 15 9 16 15 13 8 -4z m1397 -15
c0 -4 -11 -5 -25 -2 -14 2 -23 8 -20 12 6 10 45 1 45 -10z m1115 10 c3 -6 -1
-7 -9 -4 -18 7 -21 14 -7 14 6 0 13 -4 16 -10z m1826 -17 c-12 -20 -14 -14 -5
12 4 9 9 14 11 11 3 -2 0 -13 -6 -23z m-2406 3 c17 -1 -44 -3 -135 -3 -110 1
-140 3 -90 6 70 6 156 5 225 -3z m1283 -22 c-4 -3 -12 5 -18 18 -12 22 -12 22
6 6 10 -10 15 -20 12 -24z m-1591 20 c-3 -3 -12 -4 -19 -1 -8 3 -5 6 6 6 11 1
17 -2 13 -5z m440 0 c-3 -3 -12 -4 -19 -1 -8 3 -5 6 6 6 11 1 17 -2 13 -5z
m-1987 -7 c0 -2 -9 -14 -20 -27 -11 -13 -20 -19 -20 -15 0 5 7 17 17 27 15 17
23 22 23 15z m197 -59 c-2 -13 -4 -3 -4 22 0 25 2 35 4 23 2 -13 2 -33 0 -45z
m74 39 c-10 -9 -11 -8 -5 6 3 10 9 15 12 12 3 -3 0 -11 -7 -18z m52 8 c-3 -9
-8 -14 -10 -11 -3 3 -2 9 2 15 9 16 15 13 8 -4z m154 -7 c-3 -8 -6 -5 -6 6 -1
11 2 17 5 13 3 -3 4 -12 1 -19z m-570 -20 c-3 -7 -5 -2 -5 12 0 14 2 19 5 13
2 -7 2 -19 0 -25z m733 22 c0 -5 -4 -10 -10 -10 -5 0 -10 5 -10 10 0 6 5 10
10 10 6 0 10 -4 10 -10z m123 -20 c-3 -11 -9 -23 -14 -26 -5 -3 -5 6 0 19 6
14 7 28 3 33 -4 4 -2 4 5 1 6 -4 9 -16 6 -27z m1853 -2 l29 -33 -32 29 c-31
28 -38 36 -30 36 2 0 16 -15 33 -32z m1044 10 c15 -13 36 -29 46 -36 16 -10
15 -11 -6 -1 -27 13 -86 59 -75 59 4 0 20 -10 35 -22z m579 -22 c-7 -14 -16
-26 -21 -26 -5 0 -1 13 8 30 21 35 30 33 13 -4z m-94 14 c-3 -5 -12 -10 -18
-10 -7 0 -6 4 3 10 19 12 23 12 15 0z m-3558 -32 c-3 -7 -5 -2 -5 12 0 14 2
19 5 13 2 -7 2 -19 0 -25z m51 7 c-3 -3 -9 2 -12 12 -6 14 -5 15 5 6 7 -7 10
-15 7 -18z m-371 -32 c-3 -10 -5 -2 -5 17 0 19 2 27 5 18 2 -10 2 -26 0 -35z
m2898 37 c3 -5 2 -10 -4 -10 -5 0 -13 5 -16 10 -3 6 -2 10 4 10 5 0 13 -4 16
-10z m-640 -20 c3 -5 2 -10 -4 -10 -5 0 -13 5 -16 10 -3 6 -2 10 4 10 5 0 13
-4 16 -10z m1955 -10 c-6 -11 -16 -20 -22 -20 -6 0 -3 9 7 20 10 11 20 20 22
20 2 0 -1 -9 -7 -20z m-725 0 c3 -6 -1 -7 -9 -4 -18 7 -21 14 -7 14 6 0 13 -4
16 -10z m300 0 c-3 -5 -12 -10 -18 -10 -7 0 -6 4 3 10 19 12 23 12 15 0z
m-3345 -10 c0 -5 -4 -10 -10 -10 -5 0 -10 5 -10 10 0 6 5 10 10 10 6 0 10 -4
10 -10z m1860 -15 c13 -14 21 -25 18 -25 -2 0 -15 11 -28 25 -13 14 -21 25
-18 25 2 0 15 -11 28 -25z m565 5 c10 -11 16 -20 13 -20 -3 0 -13 9 -23 20
-10 11 -16 20 -13 20 3 0 13 -9 23 -20z m1066 3 c-25 -46 -181 -164 -215 -163
-6 0 16 15 48 33 33 17 85 57 115 89 62 63 66 66 52 41z m-404 1 c-3 -3 -12
-4 -19 -1 -8 3 -5 6 6 6 11 1 17 -2 13 -5z m228 -4 c3 -6 -1 -7 -9 -4 -18 7
-21 14 -7 14 6 0 13 -4 16 -10z m-4118 -37 c-3 -10 -5 -4 -5 12 0 17 2 24 5
18 2 -7 2 -21 0 -30z m686 18 c-3 -11 -15 -28 -26 -38 -22 -18 -22 -18 -4 3 9
11 17 28 17 37 0 9 4 17 9 17 5 0 7 -9 4 -19z m2291 -7 c26 -15 68 -33 94 -40
45 -13 45 -14 8 -8 -36 5 -104 35 -146 63 -29 20 -2 11 44 -15z m984 19 c-10
-2 -26 -2 -35 0 -10 3 -2 5 17 5 19 0 27 -2 18 -5z m239 1 c-3 -3 -12 -4 -19
-1 -8 3 -5 6 6 6 11 1 17 -2 13 -5z m20 -26 c-3 -8 -6 -5 -6 6 -1 11 2 17 5
13 3 -3 4 -12 1 -19z m-3897 -58 c10 0 21 9 23 20 4 17 4 17 3 -2 -1 -29 -35
-37 -53 -12 -7 10 -13 27 -12 38 1 14 4 10 10 -11 7 -22 16 -33 29 -33z m2430
13 c0 -8 -38 17 -51 33 -9 11 -2 9 19 -6 17 -13 32 -25 32 -27z m1170 37 c-8
-5 -19 -10 -25 -10 -5 0 -3 5 5 10 8 5 20 10 25 10 6 0 3 -5 -5 -10z m-3672
-31 c-3 -8 -7 -3 -11 10 -4 17 -3 21 5 13 5 -5 8 -16 6 -23z m3072 5 c0 -2 -9
0 -20 6 -11 6 -20 13 -20 16 0 2 9 0 20 -6 11 -6 20 -13 20 -16z m550 6 c-8
-5 -22 -9 -30 -9 -10 0 -8 3 5 9 27 12 43 12 25 0z m-3835 -12 c4 -3 2 -9 -3
-12 -5 -3 -15 1 -21 8 -10 11 -9 14 3 12 9 -1 18 -5 21 -8z m116 -27 c40 -8
41 -9 11 -10 -38 -1 -72 14 -72 32 0 9 2 9 8 -1 5 -7 28 -16 53 -21z m474 19
c-3 -5 -12 -10 -18 -10 -7 0 -6 4 3 10 19 12 23 12 15 0z m2730 -8 c-3 -3 -11
0 -18 7 -9 10 -8 11 6 5 10 -3 15 -9 12 -12z m448 11 c-7 -2 -19 -2 -25 0 -7
3 -2 5 12 5 14 0 19 -2 13 -5z m-653 -7 c0 -2 -7 -6 -15 -10 -8 -3 -15 -1 -15
4 0 6 7 10 15 10 8 0 15 -2 15 -4z m517 -2 c-3 -3 -12 -4 -19 -1 -8 3 -5 6 6
6 11 1 17 -2 13 -5z m420 0 c-3 -3 -12 -4 -19 -1 -8 3 -5 6 6 6 11 1 17 -2 13
-5z m-1083 -43 c-1 -1 -12 3 -23 11 -12 8 -18 17 -15 21 6 5 43 -25 38 -32z
m16 33 c0 -8 -19 -13 -24 -6 -3 5 1 9 9 9 8 0 15 -2 15 -3z m985 -4 c-3 -5
-12 -10 -18 -10 -7 0 -6 4 3 10 19 12 23 12 15 0z m345 6 c0 -2 -8 -10 -17
-17 -16 -13 -17 -12 -4 4 13 16 21 21 21 13z m-1535 -16 c3 -6 -1 -7 -9 -4
-18 7 -21 14 -7 14 6 0 13 -4 16 -10z m40 -28 c-3 -3 -11 0 -18 7 -9 10 -8 11
6 5 10 -3 15 -9 12 -12z m1058 1 c-7 -2 -19 -2 -25 0 -7 3 -2 5 12 5 14 0 19
-2 13 -5z m-848 -21 c-3 -3 -11 0 -18 7 -9 10 -8 11 6 5 10 -3 15 -9 12 -12z
m798 11 c-7 -2 -19 -2 -25 0 -7 3 -2 5 12 5 14 0 19 -2 13 -5z m-126 -9 c-3
-3 -12 -4 -19 -1 -8 3 -5 6 6 6 11 1 17 -2 13 -5z m61 -1 c-10 -2 -26 -2 -35
0 -10 3 -2 5 17 5 19 0 27 -2 18 -5z m-688 -13 c8 -5 11 -10 5 -10 -5 0 -17 5
-25 10 -8 5 -10 10 -5 10 6 0 17 -5 25 -10z m1160 6 c0 -3 -15 -14 -32 -26
l-33 -22 30 26 c31 27 35 29 35 22z m-1103 -22 c-3 -3 -12 -4 -19 -1 -8 3 -5
6 6 6 11 1 17 -2 13 -5z m50 -10 c-3 -3 -12 -4 -19 -1 -8 3 -5 6 6 6 11 1 17
-2 13 -5z m611 -11 c-21 -2 -55 -2 -75 0 -21 2 -4 4 37 4 41 0 58 -2 38 -4z
m312 -7 c0 -2 -7 -7 -16 -10 -8 -3 -12 -2 -9 4 6 10 25 14 25 6z m-1120 -16
c8 -5 11 -10 5 -10 -5 0 -17 5 -25 10 -8 5 -10 10 -5 10 6 0 17 -5 25 -10z
m1035 -20 c-3 -5 -12 -10 -18 -10 -7 0 -6 4 3 10 19 12 23 12 15 0z m-951 -9
c4 -5 -3 -7 -14 -4 -23 6 -26 13 -6 13 8 0 17 -4 20 -9z m43 -7 c-3 -3 -12 -4
-19 -1 -8 3 -5 6 6 6 11 1 17 -2 13 -5z m323 2 c0 -3 -4 -8 -10 -11 -5 -3 -10
-1 -10 4 0 6 5 11 10 11 6 0 10 -2 10 -4z m-192 -13 c-10 -2 -26 -2 -35 0 -10
3 -2 5 17 5 19 0 27 -2 18 -5z m49 1 c-3 -3 -12 -4 -19 -1 -8 3 -5 6 6 6 11 1
17 -2 13 -5z m66 -1 c-7 -2 -19 -2 -25 0 -7 3 -2 5 12 5 14 0 19 -2 13 -5z
m184 1 c-3 -3 -12 -4 -19 -1 -8 3 -5 6 6 6 11 1 17 -2 13 -5z m388 -4 c-11 -5
-36 -8 -55 -8 l-35 1 40 7 c57 10 74 10 50 0z m-203 -34 c162 -1 192 -9 78
-22 -88 -10 -150 -8 -245 6 -44 7 -156 12 -250 12 -93 -1 -175 2 -182 6 -6 4
39 6 100 6 62 -1 132 1 157 5 25 3 77 2 115 -3 39 -6 141 -10 227 -10z m41 17
c-7 -2 -19 -2 -25 0 -7 3 -2 5 12 5 14 0 19 -2 13 -5z m44 1 c-3 -3 -12 -4
-19 -1 -8 3 -5 6 6 6 11 1 17 -2 13 -5z m193 2 c0 -2 -7 -7 -16 -10 -8 -3 -12
-2 -9 4 6 10 25 14 25 6z"/>
<path d="M5225 2830 c-3 -5 -2 -10 4 -10 5 0 13 5 16 10 3 6 2 10 -4 10 -5 0
-13 -4 -16 -10z"/>
<path d="M5998 2011 c18 -17 36 -41 41 -53 4 -12 11 -17 14 -11 7 10 -33 58
-68 82 -11 7 -5 -1 13 -18z"/>
<path d="M3834 1289 c-3 -5 6 -9 20 -9 31 0 34 6 6 13 -11 3 -23 1 -26 -4z"/>
<path d="M3748 1283 c6 -2 18 -2 25 0 6 3 1 5 -13 5 -14 0 -19 -2 -12 -5z"/>
<path d="M2876 1180 c22 -9 77 -13 153 -11 80 2 36 11 -70 15 -61 3 -95 1 -83
-4z"/>
</g>
</svg>
